ISO-10303-21;
HEADER;
FILE_DESCRIPTION(('ViewDefinition [CoordinationView]','RevitIdentifiers [ContentGUID: 7acb046f-e078-4d49-a532-17cf6f0e9a17, VersionGUID: bbc96a55-0610-4999-9be6-6f78ceec1f48, NumberOfSaves: 1]','CoordinateReference [CoordinateBase: Coordenadas compartilhadas, ProjectSite: Terreno padr\X\E3o]'),'2;1');
FILE_NAME('Projeto1.ifc','2025-08-27T21:22:34-03:00',(''),(''),'ODA SDAI 24.12','Autodesk Revit 25.4.20.11 (PTB) - IFC 25.4.20.11','');
FILE_SCHEMA(('IFC4X3_ADD2'));
ENDSEC;

DATA;
#1=IFCORGANIZATION($,'Autodesk Revit 2025 (PTB)',$,$,$);
#2=IFCAPPLICATION(#1,'2025','Autodesk Revit 2025 (PTB)','Revit');
#3=IFCCARTESIANPOINT((0.,0.,0.));
#4=IFCCARTESIANPOINT((0.,0.));
#5=IFCDIRECTION((1.,0.,0.));
#6=IFCDIRECTION((-1.,0.,0.));
#7=IFCDIRECTION((0.,1.,0.));
#8=IFCDIRECTION((0.,-1.,0.));
#9=IFCDIRECTION((0.,0.,1.));
#10=IFCDIRECTION((0.,0.,-1.));
#11=IFCDIRECTION((1.,0.));
#12=IFCDIRECTION((-1.,0.));
#13=IFCDIRECTION((0.,1.));
#14=IFCDIRECTION((0.,-1.));
#15=IFCPERSON($,'','ffribeiro@gmail.com',$,$,$,$,$);
#16=IFCORGANIZATION($,'','',$,$);
#17=IFCPERSONANDORGANIZATION(#15,#16,$);
#18=IFCOWNERHISTORY(#17,#2,$,.NOCHANGE.,$,$,$,1756340444);
#19=IFCSIUNIT(*,.LENGTHUNIT.,.MILLI.,.METRE.);
#20=IFCAXIS2PLACEMENT3D(#3,$,$);
#21=IFCDIRECTION((6.123233995736766E-017,1.));
#22=IFCGEOMETRICREPRESENTATIONCONTEXT($,'Model',3,0.01,#20,#21);
#23=IFCGEOMETRICREPRESENTATIONSUBCONTEXT('Axis','Model',*,*,*,*,#22,$,.GRAPH_VIEW.,$);
#24=IFCGEOMETRICREPRESENTATIONSUBCONTEXT('Body','Model',*,*,*,*,#22,$,.MODEL_VIEW.,$);
#25=IFCGEOMETRICREPRESENTATIONSUBCONTEXT('Box','Model',*,*,*,*,#22,$,.MODEL_VIEW.,$);
#26=IFCGEOMETRICREPRESENTATIONSUBCONTEXT('FootPrint','Model',*,*,*,*,#22,$,.MODEL_VIEW.,$);
#27=IFCPROJECT('1womHlu7XDIQKo5y_GyMNd',#18,'0001',$,$,'Nome do projeto','Status do projeto',(#22),#225);
#28=IFCCLASSIFICATION('CSI (Construction Specifications Institute)','1998',$,'Uniformat','UniFormat Classification','https://www.csiresources.org/standards/uniformat',$);
#29=IFCAXIS2PLACEMENT3D(#3,$,$);
#30=IFCLOCALPLACEMENT(#41,#29);
#31=IFCPOSTALADDRESS($,$,$,$,('Insira aqui o endere\X\E7o'),$,'','Bras\X\EDlia','','Brasil');
#32=IFCBUILDING('1womHlu7XDIQKo5y_GyMNc',#18,'',$,$,#30,$,'',.ELEMENT.,$,$,#31);
#33=IFCAXIS2PLACEMENT3D(#3,$,$);
#34=IFCLOCALPLACEMENT(#30,#33);
#35=IFCBUILDINGSTOREY('3Zu5Bv0LOHrPC10026FoQQ',#18,'N\X\EDvel 1',$,'N\X\EDvel:Cabe\X\E7a de 8 mm',#34,$,'N\X\EDvel 1',.ELEMENT.,0.);
#36=IFCCARTESIANPOINT((0.,0.,4000.));
#37=IFCAXIS2PLACEMENT3D(#36,$,$);
#38=IFCLOCALPLACEMENT(#30,#37);
#39=IFCBUILDINGSTOREY('15Z0v90RiHrPC20026FoKR',#18,'N\X\EDvel 2',$,'N\X\EDvel:Cabe\X\E7a de 8 mm',#38,$,'N\X\EDvel 2',.ELEMENT.,4000.0000000000005);
#40=IFCAXIS2PLACEMENT3D(#3,$,$);
#41=IFCLOCALPLACEMENT($,#40);
#42=IFCSITE('1womHlu7XDIQKo5y_GyMNb',#18,'Default',$,$,#41,$,$,.ELEMENT.,(-15,-47,0,-959472),(-47,-52,-49,-802856),0.,$,$);
#43=IFCPROPERTYSINGLEVALUE('Reference',$,IFCIDENTIFIER('Informa\X\E7\X\F5es do projeto'),$);
#44=IFCPROPERTYSET('0$12kubJ$O9S5ODLVJ2hCD',#18,'Pset_SiteCommon',$,(#43));
#45=IFCPROPERTYSINGLEVALUE('IsExternal',$,IFCBOOLEAN(.F.),$);
#46=IFCPROPERTYSET('31pLPrmhA3pbwpDnOkHnqZ',#18,'Pset_SpaceCommon',$,(#43,#45));
#47=IFCRELDEFINESBYPROPERTIES('07bR1Vg7EVogaArQ9YMetB',#18,$,$,(#42),#44);
#48=IFCRELDEFINESBYPROPERTIES('3xReqLt6F6qfyNn8iL4GBi',#18,$,$,(#42),#46);
#49=IFCCARTESIANPOINT((-19196.146338310762,-4044.4381236946469,0.));
#50=IFCAXIS2PLACEMENT3D(#49,$,$);
#51=IFCLOCALPLACEMENT(#34,#50);
#52=IFCCARTESIANPOINT((31000.,-0.));
#53=IFCPOLYLINE((#4,#52));
#54=IFCSHAPEREPRESENTATION(#23,'Axis','Curve2D',(#53));
#55=IFCSIUNIT(*,.AREAUNIT.,$,.SQUARE_METRE.);
#56=IFCCARTESIANPOINT((15500.000000000002,-7.815970093361102E-014));
#57=IFCAXIS2PLACEMENT2D(#56,#11);
#58=IFCRECTANGLEPROFILEDEF(.AREA.,$,#57,31000.000000000004,200.);
#59=IFCAXIS2PLACEMENT3D(#3,$,$);
#60=IFCEXTRUDEDAREASOLID(#58,#59,#9,4000.0000000000005);
#61=IFCCOLOURRGB($,0.50196078431372548,0.50196078431372548,0.50196078431372548);
#62=IFCSURFACESTYLERENDERING(#61,0.,$,$,$,$,IFCNORMALISEDRATIOMEASURE(0.5),IFCSPECULAREXPONENT(64.),.NOTDEFINED.);
#63=IFCSURFACESTYLE('Material pr\X\E9-definido de parede',.BOTH.,(#62));
#64=IFCSTYLEDITEM(#60,(#63),$);
#65=IFCSHAPEREPRESENTATION(#24,'Body','SweptSolid',(#60));
#66=IFCPRODUCTDEFINITIONSHAPE($,$,(#54,#65));
#67=IFCWALL('2uA1iZBTf2tRC_P0MpbmAk',#18,'Parede b\X\E1sica:Gen\X\E9rico - 200 mm:325345',$,'Parede b\X\E1sica:Gen\X\E9rico - 200 mm',#51,#66,'325345',.NOTDEFINED.);
#68=IFCMATERIAL('Material pr\X\E9-definido de parede',$,'Diversos');
#69=IFCSTYLEDITEM($,(#63),$);
#70=IFCSTYLEDREPRESENTATION(#22,'Style','Material',(#69));
#71=IFCMATERIALDEFINITIONREPRESENTATION($,$,(#70),#68);
#72=IFCMATERIALLAYER(#68,200.,$,'Layer',$,'Diversos',$);
#73=IFCMATERIALLAYERSET((#72),'Parede b\X\E1sica:Gen\X\E9rico - 200 mm',$);
#74=IFCWALLTYPE('3Zu5Bv0LOHrPC10026FoOZ',#18,'Parede b\X\E1sica:Gen\X\E9rico - 200 mm',$,$,$,$,'398',$,.STANDARD.);
#75=IFCPROPERTYSINGLEVALUE('Reference',$,IFCIDENTIFIER('Gen\X\E9rico - 200 mm'),$);
#76=IFCPROPERTYSET('0b1NTi$ZpCuGAvaLivnq3k',#18,'Pset_EnvironmentalImpactIndicators',$,(#75));
#77=IFCPROPERTYSINGLEVALUE('Reference',$,IFCLABEL('Gen\X\E9rico - 200 mm'),$);
#78=IFCPROPERTYSET('1ZdZ$gU8e0qx_WsK$S7iWF',#18,'Pset_ReinforcementBarPitchOfWall',$,(#77));
#79=IFCPROPERTYSINGLEVALUE('IsExternal',$,IFCBOOLEAN(.T.),$);
#80=IFCPROPERTYSINGLEVALUE('LoadBearing',$,IFCBOOLEAN(.F.),$);
#81=IFCPROPERTYSINGLEVALUE('ExtendToStructure',$,IFCBOOLEAN(.F.),$);
#82=IFCPROPERTYSET('1k6yGE3jOuSI5hH0PvOCdm',#18,'Pset_WallCommon',$,(#75,#79,#80,#81));
#83=IFCRELDEFINESBYPROPERTIES('1ZFvzhs2v8WlLmXF2BsYmj',#18,$,$,(#67),#76);
#84=IFCRELDEFINESBYPROPERTIES('2jeplaW964Aje1_iA9iv12',#18,$,$,(#67),#78);
#85=IFCRELDEFINESBYPROPERTIES('1YcQ6Qrm0Hwx0IoOg5x3tj',#18,$,$,(#67),#82);
#86=IFCCARTESIANPOINT((-533.49999999999989,-1124.));
#87=IFCCARTESIANPOINT((533.49999999999977,-1124.));
#88=IFCCARTESIANPOINT((533.49999999999977,1086.));
#89=IFCCARTESIANPOINT((457.49999999999977,1086.));
#90=IFCCARTESIANPOINT((457.49999999999977,-1048.));
#91=IFCCARTESIANPOINT((-457.4999999999996,-1048.));
#92=IFCCARTESIANPOINT((-457.4999999999996,1086.));
#93=IFCCARTESIANPOINT((-533.49999999999989,1086.));
#94=IFCPOLYLINE((#86,#87,#88,#89,#90,#91,#92,#93,#86));
#95=IFCARBITRARYCLOSEDPROFILEDEF(.AREA.,'0915 x 2134mm',#94);
#96=IFCCARTESIANPOINT((457.50000000000057,200.,1086.));
#97=IFCAXIS2PLACEMENT3D(#96,#7,#5);
#98=IFCEXTRUDEDAREASOLID(#95,#97,#9,24.999999999994451);
#99=IFCSIUNIT(*,.PLANEANGLEUNIT.,$,.RADIAN.);
#100=IFCDIMENSIONALEXPONENTS(0,0,0,0,0,0,0);
#101=IFCMEASUREWITHUNIT(IFCPLANEANGLEMEASURE(0.017453292519943278),#99);
#102=IFCCONVERSIONBASEDUNIT(#100,.PLANEANGLEUNIT.,'DEGREE',#101);
#103=IFCCARTESIANPOINT((-1124.,-533.49999999999727));
#104=IFCCARTESIANPOINT((1086.,-533.49999999999727));
#105=IFCCARTESIANPOINT((1086.,-457.50000000000716));
#106=IFCCARTESIANPOINT((-1048.,-457.50000000000716));
#107=IFCCARTESIANPOINT((-1048.,457.50000000000193));
#108=IFCCARTESIANPOINT((1086.,457.50000000000193));
#109=IFCCARTESIANPOINT((1086.,533.5000000000025));
#110=IFCCARTESIANPOINT((-1124.,533.5000000000025));
#111=IFCPOLYLINE((#103,#104,#105,#106,#107,#108,#109,#110,#103));
#112=IFCARBITRARYCLOSEDPROFILEDEF(.AREA.,'0915 x 2134mm',#111);
#113=IFCCARTESIANPOINT((457.50000000000318,-25.,1086.));
#114=IFCAXIS2PLACEMENT3D(#113,#7,#10);
#115=IFCEXTRUDEDAREASOLID(#112,#114,#9,25.000000000005567);
#116=IFCCARTESIANPOINT((-5.3290705182007514E-015,0.));
#117=IFCAXIS2PLACEMENT2D(#116,#11);
#118=IFCRECTANGLEPROFILEDEF(.AREA.,'0915 x 2134mm',#117,51.,914.99999999999977);
#119=IFCCARTESIANPOINT((457.50000000000034,174.50000000000088,0.));
#120=IFCAXIS2PLACEMENT3D(#119,#9,#7);
#121=IFCEXTRUDEDAREASOLID(#118,#120,#9,2133.9999999999991);
#122=IFCCOLOURRGB($,0.46274509803921571,0.27450980392156865,0.20000000000000001);
#123=IFCSURFACESTYLERENDERING(#122,0.,$,$,$,$,IFCNORMALISEDRATIOMEASURE(0.5),IFCSPECULAREXPONENT(128.),.NOTDEFINED.);
#124=IFCSURFACESTYLE('Porta - Batente',.BOTH.,(#123));
#125=IFCSTYLEDITEM(#98,(#124),$);
#126=IFCSTYLEDITEM(#115,(#124),$);
#127=IFCCOLOURRGB($,0.82352941176470584,0.62352941176470589,0.37254901960784315);
#128=IFCSURFACESTYLERENDERING(#127,0.,$,$,$,$,IFCNORMALISEDRATIOMEASURE(0.5),IFCSPECULAREXPONENT(128.),.NOTDEFINED.);
#129=IFCSURFACESTYLE('Porta - Painel',.BOTH.,(#128));
#130=IFCSTYLEDITEM(#121,(#129),$);
#131=IFCSHAPEREPRESENTATION(#24,'Body','SweptSolid',(#98,#115,#121));
#132=IFCAXIS2PLACEMENT3D(#3,$,$);
#133=IFCREPRESENTATIONMAP(#132,#131);
#134=IFCDOORLININGPROPERTIES('2uA1iZBTf2tRC_P0IpbmDI',#18,'M_Folha \X\FAnica:0915 x 2134mm:325405',$,$,$,$,$,$,$,$,$,$,$,$,$,$);
#135=IFCDOORPANELPROPERTIES('2uA1iZBTf2tRC_P0UpbmDI',#18,'M_Folha \X\FAnica:0915 x 2134mm:325405:1',$,$,.SWINGING.,$,.NOTDEFINED.,$);
#136=IFCDOORTYPE('3Se1V9Vve_WwztB3QnQdhN',#18,'M_Folha \X\FAnica:0915 x 2134mm',$,$,(#134,#135,#176),(#133),'49480',$,.DOOR.,.SINGLE_SWING_RIGHT.,.F.,$);
#137=IFCMATERIAL('Porta - Batente',$,'Diversos');
#138=IFCSTYLEDITEM($,(#124),$);
#139=IFCSTYLEDREPRESENTATION(#22,'Style','Material',(#138));
#140=IFCMATERIALDEFINITIONREPRESENTATION($,$,(#139),#137);
#141=IFCMATERIAL('Porta - Painel',$,'Madeira');
#142=IFCSTYLEDITEM($,(#129),$);
#143=IFCSTYLEDREPRESENTATION(#22,'Style','Material',(#142));
#144=IFCMATERIALDEFINITIONREPRESENTATION($,$,(#143),#141);
#145=IFCMATERIALCONSTITUENT('Moldura/Montante',$,#137,$,'Diversos');
#146=IFCSHAPEREPRESENTATION(#24,'Body','SweptSolid',(#98,#115));
#147=IFCSHAPEASPECT((#146),'Moldura/Montante',$,.U.,#133);
#148=IFCMATERIALCONSTITUENT('Painel',$,#141,$,'Madeira');
#149=IFCSHAPEREPRESENTATION(#24,'Body','SweptSolid',(#121));
#150=IFCSHAPEASPECT((#149),'Painel',$,.U.,#133);
#151=IFCMATERIALCONSTITUENTSET($,$,(#145,#148));
#152=IFCCARTESIANTRANSFORMATIONOPERATOR3D($,$,#3,1.,$);
#153=IFCMAPPEDITEM(#133,#152);
#154=IFCSHAPEREPRESENTATION(#24,'Body','MappedRepresentation',(#153));
#155=IFCPRODUCTDEFINITIONSHAPE($,$,(#154));
#156=IFCCARTESIANPOINT((-5281.1463383107575,-3944.4381236946906,0.));
#157=IFCAXIS2PLACEMENT3D(#156,#9,#6);
#159=IFCDOOR('2uA1iZBTf2tRC_P0MpbmDI',#18,'M_Folha \X\FAnica:0915 x 2134mm:325405',$,'M_Folha \X\FAnica:0915 x 2134mm',#224,#155,'325405',2133.9999999999995,914.99999999999989,.DOOR.,.SINGLE_SWING_RIGHT.,$);
#160=IFCMATERIALCONSTITUENT('Porta - Batente',$,#137,$,'Diversos');
#161=IFCMATERIALCONSTITUENT('Porta - Painel',$,#141,$,'Madeira');
#162=IFCMATERIALCONSTITUENTSET($,$,(#160,#161));
#163=IFCPROPERTYSINGLEVALUE('Reference',$,IFCIDENTIFIER('0915 x 2134mm'),$);
#164=IFCPROPERTYSET('3$DhilkrpeDVeffthVKdif',#18,'Pset_DoorCommon',$,(#45,#163));
#165=IFCPROPERTYSET('3SVDOxtftQPCPGajPllhDK',#18,'Pset_EnvironmentalImpactIndicators',$,(#163));
#166=IFCRELDEFINESBYPROPERTIES('2B9xEcXiTo7IRLdGTZsK48',#18,$,$,(#159),#164);
#167=IFCRELDEFINESBYPROPERTIES('18GI4K_ltfTiL_N72PhNvX',#18,$,$,(#159),#165);
#168=IFCSIUNIT(*,.MASSUNIT.,.KILO.,.GRAM.);
#169=IFCDERIVEDUNITELEMENT(#168,1);
#170=IFCSIUNIT(*,.THERMODYNAMICTEMPERATUREUNIT.,$,.KELVIN.);
#171=IFCDERIVEDUNITELEMENT(#170,-1);
#172=IFCSIUNIT(*,.TIMEUNIT.,$,.SECOND.);
#173=IFCDERIVEDUNITELEMENT(#172,-3);
#174=IFCDERIVEDUNIT((#169,#171,#173),.THERMALTRANSMITTANCEUNIT.,$,$);
#175=IFCPROPERTYSINGLEVALUE('ThermalTransmittance',$,IFCTHERMALTRANSMITTANCEMEASURE(3.7021000000000002),$);
#176=IFCPROPERTYSET('1TLgDjgQQY61qYRUr18Uri',#18,'Pset_DoorCommon',$,(#175));
#177=IFCPROPERTYSINGLEVALUE('Reference',$,IFCIDENTIFIER('Cabe\X\E7a de 8 mm'),$);
#178=IFCPROPERTYSINGLEVALUE('AboveGround',$,IFCLOGICAL(.U.),$);
#179=IFCPROPERTYSET('2QFFSloDKLdASEirlNrsWG',#18,'Pset_BuildingStoreyCommon',$,(#177,#178));
#180=IFCPROPERTYSET('2khPkDg4bBoX9QFSHYxSac',#18,'Pset_SpaceCommon',$,(#45,#177));
#181=IFCRELDEFINESBYPROPERTIES('24vWbHxUvnwTMhwrnGQFQP',#18,$,$,(#35),#179);
#182=IFCRELDEFINESBYPROPERTIES('2H1toi6agC_mYxUZT$TnC9',#18,$,$,(#35),#180);
#183=IFCRELCONTAINEDINSPATIALSTRUCTURE('3Zu5Bv0LOHrPC10066FoQQ',#18,$,$,(#67,#159),#35);
#184=IFCPROPERTYSET('2y6jqut2mGsxPM5c1zUPr2',#18,'Pset_BuildingStoreyCommon',$,(#177,#178));
#185=IFCPROPERTYSET('0gGGxtUVcimZNbYugu0sB_',#18,'Pset_SpaceCommon',$,(#45,#177));
#186=IFCRELDEFINESBYPROPERTIES('03h9WtlPXy$ENv9AiS5UZC',#18,$,$,(#39),#184);
#187=IFCRELDEFINESBYPROPERTIES('2TN3LdVu1OLnLXbjiOXGUP',#18,$,$,(#39),#185);
#188=IFCRELAGGREGATES('2_N2jQqMdFVQVYfcfaUmcU',#18,$,$,#27,(#42));
#189=IFCRELAGGREGATES('1UzqHLMPwbub$J20rnaAJ_',#18,$,$,#42,(#32));
#190=IFCRELAGGREGATES('27PCKGLxT4mxtV9cw6mgBW',#18,$,$,#32,(#35,#39));
#191=IFCPROPERTYSINGLEVALUE('NumberOfStoreys',$,IFCCOUNTMEASURE(1),$);
#192=IFCPROPERTYSINGLEVALUE('IsLandmarked',$,IFCLOGICAL(.U.),$);
#193=IFCPROPERTYSET('1LiX2pae2nbtGEmE8yYiLt',#18,'Pset_BuildingCommon',$,(#43,#191,#192));
#194=IFCPROPERTYSET('2ydFxzG20KdgPTtyotj8xY',#18,'Pset_BuildingElementProxyCommon',$,(#43,#45));
#195=IFCPROPERTYSET('25osvTXwl0qgW7YfE_X_yX',#18,'Pset_BuildingStoreyCommon',$,(#43,#178));
#196=IFCPROPERTYSET('1ATWdHwfdzBr0CTciMAxa9',#18,'Pset_BuildingSystemCommon',$,(#43));
#197=IFCPROPERTYSET('0PK5llw1$YdMOfY$p5mufs',#18,'Pset_SpaceCommon',$,(#43,#45));
#198=IFCRELDEFINESBYPROPERTIES('0LtEL8C$ONvZ6eHvLiLFSH',#18,$,$,(#32),#193);
#199=IFCRELDEFINESBYPROPERTIES('1xqGCNrrZ1xno7K2hY4KZl',#18,$,$,(#32),#194);
#200=IFCRELDEFINESBYPROPERTIES('0566Sco9cXIGkEWGb7Qsl_',#18,$,$,(#32),#195);
#201=IFCRELDEFINESBYPROPERTIES('3L12HRK6RW_cCVORZMife8',#18,$,$,(#32),#196);
#202=IFCRELDEFINESBYPROPERTIES('0NsT0XuBCYWBvGmcxp_3dD',#18,$,$,(#32),#197);
#203=IFCRELASSOCIATESMATERIAL('3VbgHlFLfWZQu6HKjFKjLM',#18,$,$,(#136),#151);
#204=IFCRELASSOCIATESMATERIAL('1h2o9AgNXuUu8wSKMD3iKH',#18,$,$,(#159),#162);
#205=IFCRELASSOCIATESMATERIAL('3axTwCo9417D7Y1On$Bgrn',#18,$,$,(#67,#74),#73);
#206=IFCRELDEFINESBYTYPE('22UaGt5xHtcPNNGDHdUica',#18,$,$,(#67),#74);
#207=IFCRELDEFINESBYTYPE('1N8jPkP9N9A$i$816zNFie',#18,$,$,(#159),#136);
#208=IFCPRESENTATIONLAYERASSIGNMENT('A-WALL-____-OTLN',$,(#54,#65),$);
#209=IFCPRESENTATIONLAYERASSIGNMENT('A-DOOR-____-OTLN',$,(#131,#146,#149,#154),$);
#210=IFCCARTESIANPOINT((1066.9999999999998,457.5));
#211=IFCAXIS2PLACEMENT2D(#210,#13);
#212=IFCRECTANGLEPROFILEDEF(.AREA.,$,#211,914.99999999999977,2133.9999999999995);
#213=IFCAXIS2PLACEMENT3D(#3,#8,#9);
#214=IFCEXTRUDEDAREASOLID(#212,#213,#9,200.);
#215=IFCSHAPEREPRESENTATION(#24,'Body','SweptSolid',(#214));
#216=IFCPRODUCTDEFINITIONSHAPE($,$,(#215));
#217=IFCCARTESIANPOINT((13915.,100.,0.));
#218=IFCAXIS2PLACEMENT3D(#217,$,$);
#219=IFCLOCALPLACEMENT(#51,#218);
#220=IFCOPENINGELEMENT('1ZDSddhj1rR8j0kh8BW2Ng',#18,'M_Folha \X\FAnica:0915 x 2134mm:325405:1',$,$,#219,#216,'325405',.OPENING.);
#221=IFCRELVOIDSELEMENT('2uA1iZBTf2tRC_P16pbmDI',#18,$,$,#67,#220);
#222=IFCRELFILLSELEMENT('2FhISjULs553I7GVzlU6SL',#18,$,$,#220,#159);
#223=IFCAXIS2PLACEMENT3D(#3,#9,#6);
#224=IFCLOCALPLACEMENT(#219,#223);
#225=IFCUNITASSIGNMENT((#19,#55,#102,#174));
ENDSEC;

END-ISO-10303-21;