ISO-10303-21;
HEADER;
FILE_DESCRIPTION(('ViewDefinition [DesignTransferView_V1.0]','RevitIdentifiers [ContentGUID: f4cfbcf3-837f-4359-b03a-edb192f88a28, VersionGUID: 43fb0bc8-169c-4074-bbe7-d3b3350fc4c5, NumberOfSaves: 5]','CoordinateReference [CoordinateBase: Shared Coordinates, ProjectSite: Terreno padr\X\E3o]'),'2;1');
FILE_NAME('teste_export_2025.ifc','2025-11-05T23:34:13-03:00',(''),(''),'ODA SDAI 24.12','Autodesk Revit 25.4.20.11 (PTB) - IFC 25.4.3.0','');
FILE_SCHEMA(('IFC4'));
ENDSEC;

DATA;
#1=IFCORGANIZATION($,'Autodesk Revit 2025 (PTB)',$,$,$);
#2=IFCAPPLICATION(#1,'2025','Autodesk Revit 2025 (PTB)','Revit');
#3=IFCCARTESIANPOINT((0.,0.,0.));
#4=IFCCARTESIANPOINT((0.,0.));
#5=IFCDIRECTION((1.,0.,0.));
#6=IFCDIRECTION((-1.,0.,0.));
#7=IFCDIRECTION((0.,1.,0.));
#8=IFCDIRECTION((0.,-1.,0.));
#9=IFCDIRECTION((0.,0.,1.));
#10=IFCDIRECTION((0.,0.,-1.));
#11=IFCDIRECTION((1.,0.));
#12=IFCDIRECTION((-1.,0.));
#13=IFCDIRECTION((0.,1.));
#14=IFCDIRECTION((0.,-1.));
#15=IFCPERSON($,'','ffribeiro@gmail.com',$,$,$,$,$);
#16=IFCORGANIZATION($,'','',$,$);
#17=IFCPERSONANDORGANIZATION(#15,#16,$);
#18=IFCOWNERHISTORY(#17,#2,$,.NOCHANGE.,$,$,$,1762396385);
#19=IFCSIUNIT(*,.LENGTHUNIT.,.MILLI.,.METRE.);
#20=IFCSIUNIT(*,.AREAUNIT.,$,.SQUARE_METRE.);
#21=IFCSIUNIT(*,.VOLUMEUNIT.,$,.CUBIC_METRE.);
#22=IFCAXIS2PLACEMENT3D(#3,$,$);
#23=IFCDIRECTION((6.123233995736766E-017,1.));
#24=IFCGEOMETRICREPRESENTATIONCONTEXT($,'Model',3,0.01,#22,#23);
#25=IFCGEOMETRICREPRESENTATIONSUBCONTEXT('Axis','Model',*,*,*,*,#24,$,.GRAPH_VIEW.,$);
#26=IFCGEOMETRICREPRESENTATIONSUBCONTEXT('Body','Model',*,*,*,*,#24,$,.MODEL_VIEW.,$);
#27=IFCGEOMETRICREPRESENTATIONSUBCONTEXT('Box','Model',*,*,*,*,#24,$,.MODEL_VIEW.,$);
#28=IFCGEOMETRICREPRESENTATIONSUBCONTEXT('FootPrint','Model',*,*,*,*,#24,$,.MODEL_VIEW.,$);
#29=IFCGEOMETRICREPRESENTATIONCONTEXT($,'Plan',3,0.01,#22,#23);
#30=IFCGEOMETRICREPRESENTATIONSUBCONTEXT('Annotation','Plan',*,*,*,*,#29,0.01,.PLAN_VIEW.,$);
#31=IFCPROJECT('3qpxppWtz3MR0wxR5j1tNO',#18,'0001',$,$,'Nome do projeto','Status do projeto',(#24,#29),#729);
#32=IFCCLASSIFICATION('CSI (Construction Specifications Institute)','1998',$,'Uniformat','UniFormat Classification','https://www.csiresources.org/standards/uniformat',$);
#33=IFCAXIS2PLACEMENT3D(#3,$,$);
#34=IFCLOCALPLACEMENT(#45,#33);
#35=IFCPOSTALADDRESS($,$,$,$,('Insira aqui o endere\X\E7o'),$,'','Bras\X\EDlia','','Brasil');
#36=IFCBUILDING('3qpxppWtz3MR0wxR5j1tNP',#18,'',$,$,#34,$,'',.ELEMENT.,$,$,#35);
#37=IFCAXIS2PLACEMENT3D(#3,$,$);
#38=IFCLOCALPLACEMENT(#34,#37);
#39=IFCBUILDINGSTOREY('3Zu5Bv0LOHrPC10026FoQQ',#18,'N\X\EDvel 1',$,'N\X\EDvel:Cabe\X\E7a de 8 mm',#38,$,'N\X\EDvel 1',.ELEMENT.,0.);
#40=IFCCARTESIANPOINT((0.,0.,4000.));
#41=IFCAXIS2PLACEMENT3D(#40,$,$);
#42=IFCLOCALPLACEMENT(#34,#41);
#43=IFCBUILDINGSTOREY('15Z0v90RiHrPC20026FoKR',#18,'N\X\EDvel 2',$,'N\X\EDvel:Cabe\X\E7a de 8 mm',#42,$,'N\X\EDvel 2',.ELEMENT.,4000.0000000000009);
#44=IFCAXIS2PLACEMENT3D(#3,$,$);
#45=IFCLOCALPLACEMENT($,#44);
#46=IFCSITE('3qpxppWtz3MR0wxR5j1tNQ',#18,'Default',$,$,#45,$,$,.ELEMENT.,(-15,-47,0,-959472),(-47,-52,-49,-802856),0.,$,$);
#47=IFCPROPERTYSINGLEVALUE('Reference',$,IFCIDENTIFIER('Informa\X\E7\X\F5es do projeto'),$);
#48=IFCPROPERTYSET('3fz25fFVJOlUneKF_NeoYJ',#18,'Pset_SiteCommon',$,(#47));
#49=IFCRELDEFINESBYPROPERTIES('22GRFXx_wY2Fvzl_c$$xrS',#18,$,$,(#46),#48);
#50=IFCCARTESIANPOINT((-14307.845588072696,10717.114970804458,0.));
#51=IFCDIRECTION((0.52991926423320335,-0.84804809615642696,0.));
#52=IFCAXIS2PLACEMENT3D(#50,#9,#51);
#53=IFCLOCALPLACEMENT(#38,#52);
#54=IFCCARTESIANPOINT((26000.,0.));
#55=IFCPOLYLINE((#4,#54));
#56=IFCSHAPEREPRESENTATION(#25,'Axis','Curve2D',(#55));
#57=IFCPRODUCTDEFINITIONSHAPE($,$,(#56,#67));
#58=IFCCARTESIANPOINT((13000.,8.2422957348171622E-013));
#59=IFCAXIS2PLACEMENT2D(#58,#12);
#60=IFCRECTANGLEPROFILEDEF(.AREA.,$,#59,26000.,200.);
#61=IFCAXIS2PLACEMENT3D(#3,$,$);
#62=IFCEXTRUDEDAREASOLID(#60,#61,#9,4000.0000000000005);
#63=IFCCOLOURRGB($,0.70980392156862748,0.70980392156862748,0.70980392156862748);
#64=IFCSURFACESTYLERENDERING(#63,0.,$,$,$,$,IFCNORMALISEDRATIOMEASURE(0.5),IFCSPECULAREXPONENT(128.),.NOTDEFINED.);
#65=IFCSURFACESTYLE('Unidades de alvenaria de concreto',.BOTH.,(#64));
#66=IFCSTYLEDITEM(#62,(#65),$);
#67=IFCSHAPEREPRESENTATION(#26,'Body','SweptSolid',(#62));
#68=IFCWALL('0asWCb3Wr7Tx5Azm7pGahD',#18,'Parede b\X\E1sica:Gen\X\E9rico - 200 mm:325344',$,'Parede b\X\E1sica:Gen\X\E9rico - 200 mm',#53,#57,'325344',.NOTDEFINED.);
#69=IFCQUANTITYLENGTH('Height',$,$,4000.0000000000005,$);
#70=IFCQUANTITYLENGTH('Length',$,$,26000.,$);
#71=IFCQUANTITYLENGTH('Width',$,$,200.,$);
#72=IFCQUANTITYAREA('GrossFootprintArea',$,$,5.2000000000000579,$);
#73=IFCQUANTITYVOLUME('GrossVolume',$,$,20.800000000000004,$);
#74=IFCQUANTITYAREA('GrossSideArea',$,$,104.00000000000001,$);
#75=IFCQUANTITYAREA('NetSideArea',$,$,103.00000000000004,$);
#76=IFCQUANTITYVOLUME('NetVolume',$,$,20.600000000000115,$);
#77=IFCELEMENTQUANTITY('3k3Qldqk4y1KijKWEIk2GJ',#18,'Qto_WallBaseQuantities',$,$,(#69,#70,#71,#72,#73,#74,#75,#76));
#78=IFCRELDEFINESBYPROPERTIES('1PS8Ycy0U1ch6uW3rDjQ6A',#18,$,$,(#68),#77);
#79=IFCMATERIAL('Unidades de alvenaria de concreto',$,'Alvenaria');
#80=IFCCOLOURRGB($,0.,0.,0.);
#81=IFCDRAUGHTINGPREDEFINEDCURVEFONT('continuous');
#82=IFCCURVESTYLE($,#81,$,#80,$);
#83=IFCFILLAREASTYLEHATCHING(#82,IFCPOSITIVELENGTHMEASURE(300.),$,#4,45.);
#84=IFCCURVESTYLE($,#81,$,#80,$);
#85=IFCFILLAREASTYLEHATCHING(#84,IFCPOSITIVELENGTHMEASURE(300.),$,#4,135.);
#86=IFCFILLAREASTYLE('Hachura-cruzada diagonal',(#83,#85),$);
#87=IFCSTYLEDITEM($,(#65,#86),$);
#88=IFCSTYLEDREPRESENTATION(#24,'Style','Material and Cut Pattern',(#87));
#89=IFCMATERIALDEFINITIONREPRESENTATION($,$,(#88),#79);
#90=IFCMATERIALLAYER(#79,200.,$,'Unidades de alvenaria de concreto',$,'Alvenaria',$);
#91=IFCMATERIALLAYERSET((#90),'Parede b\X\E1sica:Gen\X\E9rico - 200 mm',$);
#92=IFCMATERIALLAYERSETUSAGE(#91,.AXIS2.,.NEGATIVE.,100.,$);
#93=IFCWALLTYPE('3Zu5Bv0LOHrPC10026FoOZ',#18,'Parede b\X\E1sica:Gen\X\E9rico - 200 mm',$,$,(#113),$,'398',$,.STANDARD.);
#94=IFCPROPERTYSINGLEVALUE('Reference',$,IFCIDENTIFIER('Gen\X\E9rico - 200 mm'),$);
#95=IFCPROPERTYSET('131x6EIr6wIokb1rKJv70j',#18,'Pset_EnvironmentalImpactIndicators',$,(#94));
#96=IFCPROPERTYSINGLEVALUE('Reference',$,IFCLABEL('Gen\X\E9rico - 200 mm'),$);
#97=IFCPROPERTYSET('2E6CW$ozsgd0aHJcQKs2Rq',#18,'Pset_ReinforcementBarPitchOfWall',$,(#96));
#98=IFCPROPERTYSINGLEVALUE('IsExternal',$,IFCBOOLEAN(.T.),$);
#99=IFCPROPERTYSINGLEVALUE('LoadBearing',$,IFCBOOLEAN(.F.),$);
#100=IFCPROPERTYSINGLEVALUE('ExtendToStructure',$,IFCBOOLEAN(.F.),$);
#101=IFCPROPERTYSET('04d6_Alpbl6H29XvlbYNGR',#18,'Pset_WallCommon',$,(#94,#98,#99,#100));
#102=IFCRELDEFINESBYPROPERTIES('1TycaEq4XjT9oQPKP8jx5w',#18,$,$,(#68),#95);
#103=IFCRELDEFINESBYPROPERTIES('0yAKh_S4eqmuZNKENMY9Uc',#18,$,$,(#68),#97);
#104=IFCRELDEFINESBYPROPERTIES('1TlgRKE50YzWlEb_EALl7C',#18,$,$,(#68),#101);
#105=IFCSIUNIT(*,.MASSUNIT.,.KILO.,.GRAM.);
#106=IFCDERIVEDUNITELEMENT(#105,1);
#107=IFCSIUNIT(*,.THERMODYNAMICTEMPERATUREUNIT.,$,.KELVIN.);
#108=IFCDERIVEDUNITELEMENT(#107,-1);
#109=IFCSIUNIT(*,.TIMEUNIT.,$,.SECOND.);
#110=IFCDERIVEDUNITELEMENT(#109,-3);
#111=IFCDERIVEDUNIT((#106,#108,#110),.THERMALTRANSMITTANCEUNIT.,$);
#112=IFCPROPERTYSINGLEVALUE('ThermalTransmittance',$,IFCTHERMALTRANSMITTANCEMEASURE(6.5),$);
#113=IFCPROPERTYSET('1_mKQnj$ZEa9FtQj5x2DQU',#18,'Pset_WallCommon',$,(#112));
#114=IFCCARTESIANPOINT((-14189.542878658876,10791.038708164991,0.));
#115=IFCDIRECTION((0.52991926423320068,-0.84804809615642862,0.));
#116=IFCAXIS2PLACEMENT3D(#114,#9,#115);
#117=IFCLOCALPLACEMENT(#38,#116);
#118=IFCCARTESIANPOINT((26000.,-0.));
#119=IFCPOLYLINE((#4,#118));
#120=IFCSHAPEREPRESENTATION(#25,'Axis','Curve2D',(#119));
#121=IFCPRODUCTDEFINITIONSHAPE($,$,(#120,#131));
#122=IFCCARTESIANPOINT((13000.000000000004,-8.1001871876651421E-013));
#123=IFCAXIS2PLACEMENT2D(#122,#12);
#124=IFCRECTANGLEPROFILEDEF(.AREA.,$,#123,26000.000000000007,79.000000000001535);
#125=IFCAXIS2PLACEMENT3D(#3,$,$);
#126=IFCEXTRUDEDAREASOLID(#124,#125,#9,3999.9999999999995);
#127=IFCCOLOURRGB($,0.97647058823529409,0.97647058823529409,0.97647058823529409);
#128=IFCSURFACESTYLERENDERING(#127,0.,$,$,$,$,IFCNORMALISEDRATIOMEASURE(0.5),IFCSPECULAREXPONENT(128.),.NOTDEFINED.);
#129=IFCSURFACESTYLE('Placa de gesso de parede',.BOTH.,(#128));
#130=IFCSTYLEDITEM(#126,(#129),$);
#131=IFCSHAPEREPRESENTATION(#26,'Body','SweptSolid',(#126));
#132=IFCCOVERING('0asWCb3Wr7Tx5Azm7pGakP',#18,'Parede b\X\E1sica:Interior - 79 mm Divis\X\F3ria (1-hr):325556',$,'Parede b\X\E1sica:Interior - 79 mm Divis\X\F3ria (1-hr)',#117,#121,'325556',.CLADDING.);
#133=IFCAXIS2PLACEMENT3D(#146,$,$);
#135=IFCCARTESIANPOINT((-5.6843418860808015E-014,0.));
#136=IFCAXIS2PLACEMENT2D(#135,#13);
#137=IFCRECTANGLEPROFILEDEF(.AREA.,'1000 x 1000 mm',#136,999.99999999999739,1000.0000000000003);
#138=IFCCARTESIANPOINT((-4270.631954074006,-7878.53553103385,500.));
#139=IFCAXIS2PLACEMENT3D(#138,#7,#6);
#140=IFCEXTRUDEDAREASOLID(#137,#139,#9,3048.0000000000014);
#141=IFCSIUNIT(*,.PLANEANGLEUNIT.,$,.RADIAN.);
#142=IFCDIMENSIONALEXPONENTS(0,0,0,0,0,0,0);
#143=IFCMEASUREWITHUNIT(IFCPLANEANGLEMEASURE(0.017453292519943278),#141);
#144=IFCCONVERSIONBASEDUNIT(#142,.PLANEANGLEUNIT.,'DEGREE',#143);
#145=IFCSHAPEREPRESENTATION(#26,'Body','SweptSolid',(#140));
#146=IFCCARTESIANPOINT((16670.631954074011,6315.0355310338882,1000.));
#147=IFCPRODUCTDEFINITIONSHAPE($,$,(#145));
#148=IFCCARTESIANPOINT((16670.631954074011,6315.0355310338864,1000.));
#149=IFCAXIS2PLACEMENT3D(#148,$,$);
#150=IFCLOCALPLACEMENT(#117,#149);
#151=IFCOPENINGELEMENT('3UN4hQBrfPa5YXp3PwdjZ2',#18,'Parede b\X\E1sica:Interior - 79 mm Divis\X\F3ria (1-hr):325556',$,$,#150,#147,'327314',.OPENING.);
#152=IFCQUANTITYLENGTH('Depth',$,$,3048.0000000000014,$);
#153=IFCQUANTITYLENGTH('Height',$,$,999.99999999999739,$);
#154=IFCQUANTITYLENGTH('Width',$,$,1000.0000000000003,$);
#155=IFCELEMENTQUANTITY('2PSdlwvHyV1d7pCka2wO$f',#18,'Qto_OpeningElementBaseQuantities',$,$,(#152,#153,#154));
#156=IFCRELDEFINESBYPROPERTIES('3W5_ygpkOw2fxE6IAW7cTG',#18,$,$,(#151),#155);
#157=IFCRELVOIDSELEMENT('0GhWX15qpM67rIeSI_H$n0',#18,$,$,#132,#151);
#158=IFCMATERIAL('Placa de gesso de parede',$,'Gen\X\E9rico');
#159=IFCCOLOURRGB($,0.,0.,0.);
#160=IFCCURVESTYLEFONTPATTERN(33.527999999999999,576.07199999999989);
#161=IFCCURVESTYLEFONTPATTERN(33.527999999999999,576.07199999999989);
#162=IFCCURVESTYLEFONTPATTERN(33.527999999999999,1185.6719999999998);
#163=IFCCURVESTYLEFONTPATTERN(33.527999999999999,576.07199999999989);
#164=IFCCURVESTYLEFONTPATTERN(33.527999999999999,372.87199999999996);
#165=IFCCURVESTYLEFONTPATTERN(33.527999999999999,982.47200000000009);
#166=IFCCURVESTYLEFONT('Areia:1',(#160,#161,#162,#163,#164,#165));
#167=IFCCURVESTYLE('Areia:1',#166,$,#159,$);
#168=IFCCARTESIANPOINT((812.79999999999995,0.));
#169=IFCFILLAREASTYLEHATCHING(#167,IFCPOSITIVELENGTHMEASURE(203.19999999999999),$,#168,0.);
#170=IFCCURVESTYLEFONTPATTERN(33.527999999999999,576.07199999999989);
#171=IFCCURVESTYLEFONTPATTERN(33.527999999999999,576.07199999999989);
#172=IFCCURVESTYLEFONTPATTERN(33.527999999999999,1185.6719999999998);
#173=IFCCURVESTYLEFONTPATTERN(33.527999999999999,576.07199999999989);
#174=IFCCURVESTYLEFONTPATTERN(33.527999999999999,372.87199999999996);
#175=IFCCURVESTYLEFONTPATTERN(33.527999999999999,982.47200000000009);
#176=IFCCURVESTYLEFONT('Areia:2',(#170,#171,#172,#173,#174,#175));
#177=IFCCURVESTYLE('Areia:2',#176,$,#159,$);
#178=IFCCARTESIANPOINT((-101.5999999999986,805.50544819599259));
#179=IFCFILLAREASTYLEHATCHING(#177,IFCPOSITIVELENGTHMEASURE(203.19999999999999),$,#178,120.00000000000001);
#180=IFCCURVESTYLEFONTPATTERN(33.527999999999999,576.07199999999989);
#181=IFCCURVESTYLEFONTPATTERN(33.527999999999999,576.07199999999989);
#182=IFCCURVESTYLEFONTPATTERN(33.527999999999999,1185.6719999999998);
#183=IFCCURVESTYLEFONTPATTERN(33.527999999999999,576.07199999999989);
#184=IFCCURVESTYLEFONTPATTERN(33.527999999999999,372.87199999999996);
#185=IFCCURVESTYLEFONTPATTERN(33.527999999999999,982.47200000000009);
#186=IFCCURVESTYLEFONT('Areia:3',(#180,#181,#182,#183,#184,#185));
#187=IFCCURVESTYLE('Areia:3',#186,$,#159,$);
#188=IFCCARTESIANPOINT((-0.,-195.90544819599006));
#189=IFCFILLAREASTYLEHATCHING(#187,IFCPOSITIVELENGTHMEASURE(203.19999999999999),$,#188,240.00000000000003);
#190=IFCFILLAREASTYLE('Areia',(#169,#179,#189),$);
#191=IFCSTYLEDITEM($,(#129,#190),$);
#192=IFCSTYLEDREPRESENTATION(#24,'Style','Material and Cut Pattern',(#191));
#193=IFCMATERIALDEFINITIONREPRESENTATION($,$,(#192),#158);
#194=IFCMATERIAL('Camada de suporte de metal',$,'Metal');
#195=IFCCOLOURRGB($,0.49803921568627452,0.49803921568627452,0.49803921568627452);
#196=IFCSURFACESTYLERENDERING(#195,0.,$,$,$,$,IFCNORMALISEDRATIOMEASURE(0.5),IFCSPECULAREXPONENT(64.),.NOTDEFINED.);
#197=IFCSURFACESTYLE('Camada de suporte de metal',.BOTH.,(#196));
#198=IFCSTYLEDITEM($,(#197),$);
#199=IFCSTYLEDREPRESENTATION(#24,'Style','Material',(#198));
#200=IFCMATERIALDEFINITIONREPRESENTATION($,$,(#199),#194);
#201=IFCMATERIALLAYER(#158,12.5,$,'Placa de gesso de parede',$,'Gen\X\E9rico',$);
#202=IFCMATERIALLAYER(#158,6.,$,'Placa de gesso de parede',$,'Gen\X\E9rico',$);
#203=IFCMATERIALLAYER(#194,42.,$,'Camada de suporte de metal',$,'Metal',$);
#204=IFCMATERIALLAYER(#158,6.,$,'Placa de gesso de parede',$,'Gen\X\E9rico',$);
#205=IFCMATERIALLAYER(#158,12.5,$,'Placa de gesso de parede',$,'Gen\X\E9rico',$);
#206=IFCMATERIALLAYERSET((#201,#202,#203,#204,#205),'Parede b\X\E1sica:Interior - 79 mm Divis\X\F3ria (1-hr)',$);
#207=IFCMATERIALLAYERSETUSAGE(#206,.AXIS2.,.NEGATIVE.,39.500000000000007,$);
#208=IFCCOVERINGTYPE('3Zu5Bv0LOHrPC10026FoO$',#18,'Parede b\X\E1sica:Interior - 79 mm Divis\X\F3ria (1-hr)',$,$,(#225),$,'402',$,.CLADDING.);
#209=IFCPROPERTYSINGLEVALUE('Reference',$,IFCIDENTIFIER('Interior - 79 mm Divis\X\F3ria (1-hr)'),$);
#210=IFCPROPERTYSINGLEVALUE('IsExternal',$,IFCBOOLEAN(.F.),$);
#211=IFCPROPERTYSET('0Jyz156rxZSopnmPtumTyW',#18,'Pset_CoveringCommon',$,(#209,#210));
#212=IFCPROPERTYSET('0BHDkUbXd7STaVMVk1$xZ3',#18,'Pset_EnvironmentalImpactIndicators',$,(#209));
#213=IFCPROPERTYSINGLEVALUE('Reference',$,IFCIDENTIFIER('1000 x 1000 mm'),$);
#214=IFCPROPERTYSET('0JvOKmIwbQ$a$swd_eEu7f',#18,'Pset_EnvironmentalImpactIndicators',$,(#213));
#215=IFCPROPERTYSET('1aZ__EDFRmElSD1YxpBK3_',#18,'Pset_OpeningElementCommon',$,(#213));
#216=IFCRELDEFINESBYPROPERTIES('2$lkNXW5C2h4r$slqoGpuU',#18,$,$,(#132),#211);
#217=IFCRELDEFINESBYPROPERTIES('0sTtOg4_Ads97I3xeA5ouK',#18,$,$,(#132),#212);
#218=IFCRELDEFINESBYPROPERTIES('3bX2TEL9gqgRO5ZgQx2FIx',#18,$,$,(#151),#214);
#219=IFCRELDEFINESBYPROPERTIES('1OjtL$f2tSJEPulXg33TFR',#18,$,$,(#151),#215);
#220=IFCQUANTITYAREA('GrossArea','',$,103.,$);
#221=IFCQUANTITYAREA('NetArea','',$,103.,$);
#222=IFCELEMENTQUANTITY('0MmZ7_t135JMXYBH0aeBJa',#18,'Qto_CoveringBaseQuantities',$,$,(#220,#221));
#223=IFCRELDEFINESBYPROPERTIES('0k$jBl2shilWsBgnAATVW2',#18,$,$,(#132),#222);
#224=IFCPROPERTYSINGLEVALUE('ThermalTransmittance',$,IFCTHERMALTRANSMITTANCEMEASURE(0.57573073516386186),$);
#225=IFCPROPERTYSET('0SX3qucLIEm_sWu9lDIKiz',#18,'Pset_CoveringCommon',$,(#224));
#226=IFCAXIS2PLACEMENT3D(#3,$,$);
#227=IFCLOCALPLACEMENT(#38,#226);
#228=IFCCARTESIANPOINT((0.,0.));
#229=IFCAXIS2PLACEMENT2D(#228,#11);
#230=IFCRECTANGLEPROFILEDEF(.AREA.,$,#229,22049.250500067148,13777.90087006322);
#231=IFCCARTESIANPOINT((-7267.0945438290864,-212.6547309313714,0.));
#232=IFCAXIS2PLACEMENT3D(#231,#10,#7);
#233=IFCEXTRUDEDAREASOLID(#230,#232,#9,149.99999999999997);
#234=IFCCOLOURRGB($,0.49803921568627452,0.49803921568627452,0.49803921568627452);
#235=IFCSURFACESTYLERENDERING(#234,0.,$,$,$,$,IFCNORMALISEDRATIOMEASURE(0.5),IFCSPECULAREXPONENT(64.),.NOTDEFINED.);
#236=IFCSURFACESTYLE('Material pr\X\E9-definido de piso',.BOTH.,(#235));
#237=IFCSTYLEDITEM(#233,(#236),$);
#238=IFCSHAPEREPRESENTATION(#26,'Body','SweptSolid',(#233));
#239=IFCCARTESIANPOINT((-14156.044978860697,-11237.279980964946));
#240=IFCCARTESIANPOINT((-14156.044978860697,10811.970519102202));
#241=IFCCARTESIANPOINT((-378.14410879747629,10811.970519102202));
#242=IFCCARTESIANPOINT((-378.14410879747629,-11237.279980964946));
#243=IFCPOLYLINE((#239,#240,#241,#242,#239));
#244=IFCSHAPEREPRESENTATION(#28,'FootPrint','Curve2D',(#243));
#245=IFCPRODUCTDEFINITIONSHAPE($,$,(#238,#244));
#246=IFCSLAB('0asWCb3Wr7Tx5Azm7pGaGO',#18,'Piso:Gen\X\E9rico 150 mm:325685',$,'Piso:Gen\X\E9rico 150 mm',#227,#245,'325685',.FLOOR.);
#247=IFCSLABTYPE('3Zu5Bv0LOHrPC10026FoR_',#18,'Piso:Gen\X\E9rico 150 mm',$,$,$,$,'339',$,.FLOOR.);
#248=IFCMATERIAL('Material pr\X\E9-definido de piso',$,'Diversos');
#249=IFCSTYLEDITEM($,(#236),$);
#250=IFCSTYLEDREPRESENTATION(#24,'Style','Material',(#249));
#251=IFCMATERIALDEFINITIONREPRESENTATION($,$,(#250),#248);
#252=IFCMATERIALLAYER(#248,149.99999999999997,$,'Layer',$,'Diversos',$);
#253=IFCMATERIALLAYERSET((#252),'Piso:Gen\X\E9rico 150 mm',$);
#254=IFCMATERIALLAYERSETUSAGE(#253,.AXIS3.,.POSITIVE.,0.,$);
#255=IFCPROPERTYSINGLEVALUE('Reference',$,IFCIDENTIFIER('Gen\X\E9rico 150 mm'),$);
#256=IFCPROPERTYSET('2ZGQAkAcNxOYRTE5IU30RG',#18,'Pset_EnvironmentalImpactIndicators',$,(#255));
#257=IFCPROPERTYSINGLEVALUE('Reference',$,IFCLABEL('Gen\X\E9rico 150 mm'),$);
#258=IFCPROPERTYSET('2Q0wOUYoXbgrEm9XXcDpg7',#18,'Pset_ReinforcementBarPitchOfSlab',$,(#257));
#259=IFCPROPERTYSINGLEVALUE('PitchAngle',$,IFCPLANEANGLEMEASURE(0.),$);
#260=IFCPROPERTYSET('0uS7OG5fLv8jBMsp7V3CE6',#18,'Pset_SlabCommon',$,(#99,#210,#255,#259));
#261=IFCRELDEFINESBYPROPERTIES('3j6aj4XjfecVcNWjGuFwhh',#18,$,$,(#246),#256);
#262=IFCRELDEFINESBYPROPERTIES('0$B__K86W9zfTzacF8mAO2',#18,$,$,(#246),#258);
#263=IFCRELDEFINESBYPROPERTIES('0yuSFDn151vVn0_ZncSMot',#18,$,$,(#246),#260);
#264=IFCQUANTITYLENGTH('Width','',$,13777.90087006322,$);
#265=IFCQUANTITYLENGTH('Length','',$,22049.250500067148,$);
#266=IFCQUANTITYLENGTH('Depth','',$,149.99999999999997,$);
#267=IFCQUANTITYLENGTH('Perimeter','',$,71654.30274026074,$);
#268=IFCQUANTITYAREA('GrossArea','',$,303.79238764911702,$);
#269=IFCQUANTITYAREA('NetArea','',$,303.79238764911702,$);
#270=IFCQUANTITYVOLUME('GrossVolume','',$,45.568858147367543,$);
#271=IFCQUANTITYVOLUME('NetVolume','',$,45.568858147367543,$);
#272=IFCELEMENTQUANTITY('3qZXfSscaUDbsz$LiEE0aB',#18,'Qto_SlabBaseQuantities',$,$,(#264,#265,#266,#267,#268,#269,#270,#271));
#273=IFCRELDEFINESBYPROPERTIES('0cUGbjK8fq_WM5wyZSnnwI',#18,$,$,(#246),#272);
#274=IFCCARTESIANPOINT((8.4376949871511897E-015,0.));
#275=IFCAXIS2PLACEMENT2D(#274,#11);
#276=IFCRECTANGLEPROFILEDEF(.AREA.,'1000 x 1000 mm',#275,11.999999999999996,873.99999999999704);
#277=IFCCARTESIANPOINT((500.,159.,63.));
#278=IFCAXIS2PLACEMENT3D(#277,#9,#8);
#279=IFCEXTRUDEDAREASOLID(#276,#278,#9,874.00000000000648);
#280=IFCCARTESIANPOINT((-481.,-481.));
#281=IFCCARTESIANPOINT((481.,-481.));
#282=IFCCARTESIANPOINT((481.,481.));
#283=IFCCARTESIANPOINT((-481.,481.));
#284=IFCPOLYLINE((#280,#281,#282,#283,#280));
#285=IFCCARTESIANPOINT((-437.,-437.));
#286=IFCCARTESIANPOINT((-437.,437.));
#287=IFCCARTESIANPOINT((437.,437.));
#288=IFCCARTESIANPOINT((437.,-437.));
#289=IFCPOLYLINE((#285,#286,#287,#288,#285));
#290=IFCARBITRARYPROFILEDEFWITHVOIDS(.AREA.,'1000 x 1000 mm',#284,(#289));
#291=IFCCARTESIANPOINT((500.,137.,500.));
#292=IFCAXIS2PLACEMENT3D(#291,#7,#5);
#293=IFCEXTRUDEDAREASOLID(#290,#292,#9,44.000000000027441);
#294=IFCCARTESIANPOINT((-500.,-500.));
#295=IFCCARTESIANPOINT((500.,-500.));
#296=IFCCARTESIANPOINT((500.,500.));
#297=IFCCARTESIANPOINT((-500.,500.));
#298=IFCPOLYLINE((#294,#295,#296,#297,#294));
#299=IFCCARTESIANPOINT((-481.,-481.));
#300=IFCCARTESIANPOINT((-481.,481.));
#301=IFCCARTESIANPOINT((481.,481.));
#302=IFCCARTESIANPOINT((481.,-481.));
#303=IFCPOLYLINE((#299,#300,#301,#302,#299));
#304=IFCARBITRARYPROFILEDEFWITHVOIDS(.AREA.,'1000 x 1000 mm',#298,(#303));
#305=IFCCARTESIANPOINT((500.,137.,500.));
#306=IFCAXIS2PLACEMENT3D(#305,#7,#5);
#307=IFCEXTRUDEDAREASOLID(#304,#306,#9,63.000000000027434);
#308=IFCCARTESIANPOINT((-500.,-500.));
#309=IFCCARTESIANPOINT((500.,-500.));
#310=IFCCARTESIANPOINT((500.,500.));
#311=IFCCARTESIANPOINT((-500.,500.));
#312=IFCPOLYLINE((#308,#309,#310,#311,#308));
#313=IFCCARTESIANPOINT((-468.,-468.));
#314=IFCCARTESIANPOINT((-468.,468.));
#315=IFCCARTESIANPOINT((468.,468.));
#316=IFCCARTESIANPOINT((468.,-468.));
#317=IFCPOLYLINE((#313,#314,#315,#316,#313));
#318=IFCARBITRARYPROFILEDEFWITHVOIDS(.AREA.,'1000 x 1000 mm',#312,(#317));
#319=IFCCARTESIANPOINT((500.,0.,500.));
#320=IFCAXIS2PLACEMENT3D(#319,#7,#5);
#321=IFCEXTRUDEDAREASOLID(#318,#320,#9,136.99999999997257);
#322=IFCCOLOURRGB($,0.,0.50196078431372548,0.75294117647058822);
#323=IFCSURFACESTYLERENDERING(#322,0.90000000000000002,$,$,$,$,IFCNORMALISEDRATIOMEASURE(0.5),IFCSPECULAREXPONENT(12.),.NOTDEFINED.);
#324=IFCSURFACESTYLE('Vidro',.BOTH.,(#323));
#325=IFCSTYLEDITEM(#279,(#324),$);
#326=IFCCOLOURRGB($,0.8784313725490196,0.69803921568627447,0.49411764705882355);
#327=IFCSURFACESTYLERENDERING(#326,0.,$,$,$,$,IFCNORMALISEDRATIOMEASURE(0.5),IFCSPECULAREXPONENT(128.),.NOTDEFINED.);
#328=IFCSURFACESTYLE('Caixilho',.BOTH.,(#327));
#329=IFCSTYLEDITEM(#293,(#328),$);
#330=IFCSTYLEDITEM(#307,(#328),$);
#331=IFCSTYLEDITEM(#321,(#328),$);
#332=IFCSHAPEREPRESENTATION(#26,'Body','SweptSolid',(#279,#293,#307,#321));
#333=IFCAXIS2PLACEMENT3D(#3,$,$);
#334=IFCREPRESENTATIONMAP(#333,#332);
#335=IFCWINDOWLININGPROPERTIES('1I0EcHemb5$uSLezuP4V06',#18,'M_Fixo:1000 x 1000 mm:327314',$,$,$,$,$,$,$,$,$,$,$,$,$);
#336=IFCWINDOWTYPE('2wXlVNpBOnlJ0mQoiC0Vur',#18,'M_Fixo:1000 x 1000 mm',$,$,(#335,#375),(#334),'326309',$,.WINDOW.,.NOTDEFINED.,.F.,$);
#337=IFCMATERIAL('Vidro',$,'Vidro');
#338=IFCSTYLEDITEM($,(#324),$);
#339=IFCSTYLEDREPRESENTATION(#24,'Style','Material',(#338));
#340=IFCMATERIALDEFINITIONREPRESENTATION($,$,(#339),#337);
#341=IFCMATERIAL('Caixilho',$,'Madeira');
#342=IFCSTYLEDITEM($,(#328),$);
#343=IFCSTYLEDREPRESENTATION(#24,'Style','Material',(#342));
#344=IFCMATERIALDEFINITIONREPRESENTATION($,$,(#343),#341);
#345=IFCMATERIALCONSTITUENT('Vidro',$,#337,0.24155849494747161,'Vidro');
#346=IFCSHAPEREPRESENTATION(#26,'Body','SweptSolid',(#279));
#347=IFCSHAPEASPECT((#346),'Vidro',$,.U.,#334);
#348=IFCMATERIALCONSTITUENT('Moldura/Montante',$,#341,0.75844150505252839,'Madeira');
#349=IFCSHAPEREPRESENTATION(#26,'Body','SweptSolid',(#293,#307,#321));
#350=IFCSHAPEASPECT((#349),'Moldura/Montante',$,.U.,#334);
#351=IFCMATERIALCONSTITUENTSET($,$,(#345,#348));
#352=IFCCARTESIANTRANSFORMATIONOPERATOR3D($,$,#3,1.,$);
#353=IFCMAPPEDITEM(#334,#352);
#354=IFCSHAPEREPRESENTATION(#26,'Body','MappedRepresentation',(#353));
#355=IFCPRODUCTDEFINITIONSHAPE($,$,(#354));
#356=IFCCARTESIANPOINT((-7387.0822698487291,-169.71354319013034,1000.));
#357=IFCDIRECTION((-0.52991926423320335,0.84804809615642696,0.));
#358=IFCAXIS2PLACEMENT3D(#356,#9,#357);
#360=IFCWINDOW('1I0EcHemb5$uSLezyP4V06',#18,'M_Fixo:1000 x 1000 mm:327314',$,'M_Fixo:1000 x 1000 mm',#553,#355,'327314',999.99999999999739,999.99999999999977,.WINDOW.,.NOTDEFINED.,$);
#361=IFCMATERIALCONSTITUENT('Vidro',$,#337,0.24155849494747161,'Vidro');
#362=IFCMATERIALCONSTITUENT('Caixilho',$,#341,0.75844150505252839,'Madeira');
#363=IFCMATERIALCONSTITUENTSET($,$,(#361,#362));
#364=IFCPROPERTYSET('398cMF5H$5xL7XtFRCp_t3',#18,'Pset_EnvironmentalImpactIndicators',$,(#213));
#365=IFCPROPERTYSET('2Wyzgb4VfTCyApeBcvUs8e',#18,'Pset_WindowCommon',$,(#98,#213));
#366=IFCRELDEFINESBYPROPERTIES('0kW8L0ykTrxj8OKElQxSfk',#18,$,$,(#360),#364);
#367=IFCRELDEFINESBYPROPERTIES('0l2v_CfyG3$jHjEAt7FvDr',#18,$,$,(#360),#365);
#368=IFCQUANTITYLENGTH('Width','',$,1000.0000000000001,$);
#369=IFCQUANTITYLENGTH('Height','',$,1000.0000000000001,$);
#370=IFCQUANTITYLENGTH('Perimeter','',$,3999.9999999999854,$);
#371=IFCQUANTITYAREA('Area','',$,1.0000000000000002,$);
#372=IFCELEMENTQUANTITY('1L3tXSSEhsFSV7goMiT8mJ',#18,'Qto_WindowBaseQuantities',$,$,(#368,#369,#370,#371));
#373=IFCRELDEFINESBYPROPERTIES('0brI9VPDbXdg7HWIydM3ZN',#18,$,$,(#360),#372);
#374=IFCPROPERTYSINGLEVALUE('ThermalTransmittance',$,IFCTHERMALTRANSMITTANCEMEASURE(3.6886000000000001),$);
#375=IFCPROPERTYSET('31p3_rjK8okUGIgEdaRb7B',#18,'Pset_WindowCommon',$,(#374));
#376=IFCCARTESIANPOINT((-14156.044978860697,-11237.279980964948,0.));
#377=IFCDIRECTION((0.54463903501502797,0.8386705679454235,0.));
#378=IFCAXIS2PLACEMENT3D(#376,#9,#377);
#379=IFCLOCALPLACEMENT(#38,#378);
#380=IFCCARTESIANPOINT((9500.,0.));
#381=IFCPOLYLINE((#4,#380));
#382=IFCSHAPEREPRESENTATION(#25,'Axis','Curve2D',(#381));
#383=IFCPRODUCTDEFINITIONSHAPE($,$,(#382,#390));
#384=IFCCARTESIANPOINT((4750.0000000000018,1.2150280781497713E-012));
#385=IFCAXIS2PLACEMENT2D(#384,#12);
#386=IFCRECTANGLEPROFILEDEF(.AREA.,$,#385,9500.0000000000036,200.00000000000057);
#387=IFCAXIS2PLACEMENT3D(#3,$,$);
#388=IFCEXTRUDEDAREASOLID(#386,#387,#9,4000.0000000000009);
#389=IFCSTYLEDITEM(#388,(#65),$);
#390=IFCSHAPEREPRESENTATION(#26,'Body','SweptSolid',(#388));
#391=IFCWALL('2k52yY7Jb7tQXr1FuzSf18',#18,'Parede b\X\E1sica:Gen\X\E9rico - 200 mm:327589',$,'Parede b\X\E1sica:Gen\X\E9rico - 200 mm',#379,#383,'327589',.NOTDEFINED.);
#392=IFCQUANTITYLENGTH('Height',$,$,4000.0000000000009,$);
#393=IFCQUANTITYLENGTH('Length',$,$,9500.0000000000055,$);
#394=IFCQUANTITYLENGTH('Width',$,$,200.,$);
#395=IFCQUANTITYAREA('GrossFootprintArea',$,$,1.9000000000000012,$);
#396=IFCQUANTITYVOLUME('GrossVolume',$,$,7.6000000000000041,$);
#397=IFCQUANTITYAREA('GrossSideArea',$,$,38.000000000000021,$);
#398=IFCQUANTITYAREA('NetSideArea',$,$,38.000000000000021,$);
#399=IFCQUANTITYVOLUME('NetVolume',$,$,7.6000000000000005,$);
#400=IFCELEMENTQUANTITY('2ymMo7KdvmP0xPV7yAfFQh',#18,'Qto_WallBaseQuantities',$,$,(#392,#393,#394,#395,#396,#397,#398,#399));
#401=IFCRELDEFINESBYPROPERTIES('3POMnEa$d_tMqFfyx3SH2$',#18,$,$,(#391),#400);
#402=IFCMATERIALLAYERSETUSAGE(#91,.AXIS2.,.NEGATIVE.,100.,$);
#403=IFCPROPERTYSET('3tHGry6eM4bPfXgjheT7eW',#18,'Pset_EnvironmentalImpactIndicators',$,(#94));
#404=IFCPROPERTYSINGLEVALUE('Reference',$,IFCLABEL('Gen\X\E9rico - 200 mm'),$);
#405=IFCPROPERTYSET('1YUze$CGqam3nMCbYO_qaQ',#18,'Pset_ReinforcementBarPitchOfWall',$,(#404));
#406=IFCPROPERTYSET('3DQvqhL6JIsTRJwpSdUSvE',#18,'Pset_WallCommon',$,(#94,#98,#99,#100));
#407=IFCRELDEFINESBYPROPERTIES('1dWH7kKf175_B7tFt5Ppzw',#18,$,$,(#391),#403);
#408=IFCRELDEFINESBYPROPERTIES('3pQ_Ok8AcAw9IMyggGtO4j',#18,$,$,(#391),#405);
#409=IFCRELDEFINESBYPROPERTIES('30H_t8m6btfBvl5tE96PMC',#18,$,$,(#391),#406);
#410=IFCCARTESIANPOINT((-378.14410879747516,10811.970519102202,0.));
#411=IFCDIRECTION((-0.49904482613289974,-0.86657617178756063,0.));
#412=IFCAXIS2PLACEMENT3D(#410,#9,#411);
#413=IFCLOCALPLACEMENT(#38,#412);
#414=IFCCARTESIANPOINT((8491.5423514554332,0.));
#415=IFCPOLYLINE((#4,#414));
#416=IFCSHAPEREPRESENTATION(#25,'Axis','Curve2D',(#415));
#417=IFCPRODUCTDEFINITIONSHAPE($,$,(#416,#424));
#418=IFCCARTESIANPOINT((4245.7711757277175,-1.2647660696529783E-012));
#419=IFCAXIS2PLACEMENT2D(#418,#12);
#420=IFCRECTANGLEPROFILEDEF(.AREA.,$,#419,8491.542351455435,200.00000000000108);
#421=IFCAXIS2PLACEMENT3D(#3,$,$);
#422=IFCEXTRUDEDAREASOLID(#420,#421,#9,4000.0000000000009);
#423=IFCSTYLEDITEM(#422,(#65),$);
#424=IFCSHAPEREPRESENTATION(#26,'Body','SweptSolid',(#422));
#425=IFCWALL('2k52yY7Jb7tQXr1FuzSs$T',#18,'Parede b\X\E1sica:Gen\X\E9rico - 200 mm:327728',$,'Parede b\X\E1sica:Gen\X\E9rico - 200 mm',#413,#417,'327728',.NOTDEFINED.);
#426=IFCQUANTITYLENGTH('Height',$,$,4000.0000000000009,$);
#427=IFCQUANTITYLENGTH('Length',$,$,8491.542351455435,$);
#428=IFCQUANTITYLENGTH('Width',$,$,200.,$);
#429=IFCQUANTITYAREA('GrossFootprintArea',$,$,1.6983084702910918,$);
#430=IFCQUANTITYVOLUME('GrossVolume',$,$,6.7932338811643493,$);
#431=IFCQUANTITYAREA('GrossSideArea',$,$,33.966169405821745,$);
#432=IFCQUANTITYAREA('NetSideArea',$,$,33.966169405821745,$);
#433=IFCQUANTITYVOLUME('NetVolume',$,$,6.7932338811643627,$);
#434=IFCELEMENTQUANTITY('2zs8bdC$DuBrc8gdaf0vtg',#18,'Qto_WallBaseQuantities',$,$,(#426,#427,#428,#429,#430,#431,#432,#433));
#435=IFCRELDEFINESBYPROPERTIES('3rrtWaRsLxqhY9BCPX03Zr',#18,$,$,(#425),#434);
#436=IFCMATERIALLAYERSETUSAGE(#91,.AXIS2.,.NEGATIVE.,100.,$);
#437=IFCPROPERTYSET('1fIRaDWzg2lQni34Q8yJSZ',#18,'Pset_EnvironmentalImpactIndicators',$,(#94));
#438=IFCPROPERTYSINGLEVALUE('Reference',$,IFCLABEL('Gen\X\E9rico - 200 mm'),$);
#439=IFCPROPERTYSET('0ZflRnYlVU0qR2_w2dAHDb',#18,'Pset_ReinforcementBarPitchOfWall',$,(#438));
#440=IFCPROPERTYSET('2_Hs83PDnZpJ7OZJWKTu4M',#18,'Pset_WallCommon',$,(#94,#98,#99,#100));
#441=IFCRELDEFINESBYPROPERTIES('32qtZWRhhC9GW5fR85VUTR',#18,$,$,(#425),#437);
#442=IFCRELDEFINESBYPROPERTIES('3FxuFs0smukBr0tKIh3i$7',#18,$,$,(#425),#439);
#443=IFCRELDEFINESBYPROPERTIES('1SEWgKx7PFAwise0A3TyIx',#18,$,$,(#425),#440);
#444=IFCCARTESIANPOINT((-14039.050434632312,-11313.257126349545,0.));
#445=IFCDIRECTION((0.54463903501502797,0.8386705679454235,0.));
#446=IFCAXIS2PLACEMENT3D(#444,#9,#445);
#447=IFCLOCALPLACEMENT(#38,#446);
#448=IFCCARTESIANPOINT((9500.,-0.));
#449=IFCPOLYLINE((#4,#448));
#450=IFCSHAPEREPRESENTATION(#25,'Axis','Curve2D',(#449));
#451=IFCPRODUCTDEFINITIONSHAPE($,$,(#450,#458));
#452=IFCCARTESIANPOINT((4750.0000000000073,-2.5579538487363607E-013));
#453=IFCAXIS2PLACEMENT2D(#452,#12);
#454=IFCRECTANGLEPROFILEDEF(.AREA.,$,#453,9500.0000000000109,78.999999999999915);
#455=IFCAXIS2PLACEMENT3D(#3,$,$);
#456=IFCEXTRUDEDAREASOLID(#454,#455,#9,3999.9999999999995);
#457=IFCSTYLEDITEM(#456,(#129),$);
#458=IFCSHAPEREPRESENTATION(#26,'Body','SweptSolid',(#456));
#459=IFCCOVERING('2k52yY7Jb7tQXr1FuzSsu$',#18,'Parede b\X\E1sica:Interior - 79 mm Divis\X\F3ria (1-hr):328146',$,'Parede b\X\E1sica:Interior - 79 mm Divis\X\F3ria (1-hr)',#447,#451,'328146',.CLADDING.);
#460=IFCMATERIALLAYERSETUSAGE(#206,.AXIS2.,.POSITIVE.,-39.500000000000007,$);
#461=IFCPROPERTYSET('1ihdt_XWgd6ARmSfWCBy9O',#18,'Pset_CoveringCommon',$,(#209,#210));
#462=IFCPROPERTYSET('3$moXqzMCzGmB30mRL4yBv',#18,'Pset_EnvironmentalImpactIndicators',$,(#209));
#463=IFCRELDEFINESBYPROPERTIES('1WrN3SF0BvrxEmSAr06sjG',#18,$,$,(#459),#461);
#464=IFCRELDEFINESBYPROPERTIES('2z_QVOcRro9wufqtATwKQF',#18,$,$,(#459),#462);
#465=IFCQUANTITYAREA('GrossArea','',$,38.000000000000028,$);
#466=IFCQUANTITYAREA('NetArea','',$,38.000000000000028,$);
#467=IFCELEMENTQUANTITY('1XxTf0xFPjbaGu56ymIjDc',#18,'Qto_CoveringBaseQuantities',$,$,(#465,#466));
#468=IFCRELDEFINESBYPROPERTIES('22xT7CmxVg5yKBKEHUEOmf',#18,$,$,(#459),#467);
#469=IFCCARTESIANPOINT((-4736.691761144074,3523.0190088515487,0.));
#470=IFCDIRECTION((0.49904482613290263,0.86657617178755897,0.));
#471=IFCAXIS2PLACEMENT3D(#469,#9,#470);
#472=IFCLOCALPLACEMENT(#38,#471);
#473=IFCCARTESIANPOINT((8491.5423514554368,-0.));
#474=IFCPOLYLINE((#4,#473));
#475=IFCSHAPEREPRESENTATION(#25,'Axis','Curve2D',(#474));
#476=IFCPRODUCTDEFINITIONSHAPE($,$,(#475,#483));
#477=IFCCARTESIANPOINT((4245.7711757277184,-2.8421709430404007E-013));
#478=IFCAXIS2PLACEMENT2D(#477,#12);
#479=IFCRECTANGLEPROFILEDEF(.AREA.,$,#478,8491.5423514554368,78.999999999999375);
#480=IFCAXIS2PLACEMENT3D(#3,$,$);
#481=IFCEXTRUDEDAREASOLID(#479,#480,#9,3999.9999999999995);
#482=IFCSTYLEDITEM(#481,(#129),$);
#483=IFCSHAPEREPRESENTATION(#26,'Body','SweptSolid',(#481));
#484=IFCCOVERING('2k52yY7Jb7tQXr1FuzSss2',#18,'Parede b\X\E1sica:Interior - 79 mm Divis\X\F3ria (1-hr):328303',$,'Parede b\X\E1sica:Interior - 79 mm Divis\X\F3ria (1-hr)',#472,#476,'328303',.CLADDING.);
#485=IFCMATERIALLAYERSETUSAGE(#206,.AXIS2.,.NEGATIVE.,39.500000000000007,$);
#486=IFCPROPERTYSET('2jPQWV$aoCUqrOuWyQPJk4',#18,'Pset_CoveringCommon',$,(#209,#210));
#487=IFCPROPERTYSET('3PUZa_huMfQlQ8zZiHXtAw',#18,'Pset_EnvironmentalImpactIndicators',$,(#209));
#488=IFCRELDEFINESBYPROPERTIES('3EORtXS2mj5En$0TbyZ2ds',#18,$,$,(#484),#486);
#489=IFCRELDEFINESBYPROPERTIES('1v14H3QI3b10DGimQ5gbiM',#18,$,$,(#484),#487);
#490=IFCQUANTITYAREA('GrossArea','',$,33.966169405821745,$);
#491=IFCQUANTITYAREA('NetArea','',$,33.966169405821745,$);
#492=IFCELEMENTQUANTITY('3hLd9KYN5GaSCLThE0mRCy',#18,'Qto_CoveringBaseQuantities',$,$,(#490,#491));
#493=IFCRELDEFINESBYPROPERTIES('1vcQdvqibDrtiAphXr$k0V',#18,$,$,(#484),#492);
#494=IFCPROPERTYSINGLEVALUE('Reference',$,IFCIDENTIFIER('Cabe\X\E7a de 8 mm'),$);
#495=IFCPROPERTYSINGLEVALUE('AboveGround',$,IFCLOGICAL(.U.),$);
#496=IFCPROPERTYSET('2QFFSloDKLdASEirlNrsWG',#18,'Pset_BuildingStoreyCommon',$,(#494,#495));
#497=IFCRELDEFINESBYPROPERTIES('24vWbHxUvnwTMhwrnGQFQP',#18,$,$,(#39),#496);
#498=IFCRELCONTAINEDINSPATIALSTRUCTURE('3Zu5Bv0LOHrPC10066FoQQ',#18,$,$,(#68,#132,#246,#360,#391,#425,#459,#484),#39);
#499=IFCPROPERTYSET('2y6jqut2mGsxPM5c1zUPr2',#18,'Pset_BuildingStoreyCommon',$,(#494,#495));
#500=IFCRELDEFINESBYPROPERTIES('03h9WtlPXy$ENv9AiS5UZC',#18,$,$,(#43),#499);
#501=IFCRELAGGREGATES('2LlKKG40BGNGIMj_fHR78C',#18,$,$,#31,(#46));
#502=IFCRELAGGREGATES('1Cjj9OTYlW2X1MchsjWUmU',#18,$,$,#46,(#36));
#503=IFCRELAGGREGATES('27PCKGLxT4mxtV9cw6mgBW',#18,$,$,#36,(#39,#43));
#504=IFCPROPERTYSINGLEVALUE('NumberOfStoreys',$,IFCINTEGER(1),$);
#505=IFCPROPERTYSINGLEVALUE('IsLandmarked',$,IFCLOGICAL(.U.),$);
#506=IFCPROPERTYSET('1PEdt_aXFys4vrRzZmzfTA',#18,'Pset_BuildingCommon',$,(#47,#504,#505));
#507=IFCPROPERTYSET('1MTFXXluURHAaqGgBWFE45',#18,'Pset_BuildingElementProxyCommon',$,(#47,#210));
#508=IFCPROPERTYSET('2jbbJ0LW_TS45oSB8hXJ4O',#18,'Pset_BuildingStoreyCommon',$,(#47,#495));
#509=IFCPROPERTYSET('0pHyzSOR274rXGYZGltMVy',#18,'Pset_BuildingSystemCommon',$,(#47));
#510=IFCRELDEFINESBYPROPERTIES('2BOIdKD4$nd$0QOln8OrQc',#18,$,$,(#36),#506);
#511=IFCRELDEFINESBYPROPERTIES('171kxeAeFa8lZ_P8gJAJiX',#18,$,$,(#36),#507);
#512=IFCRELDEFINESBYPROPERTIES('01EpqTekHFZMtvdviHUJ82',#18,$,$,(#36),#508);
#513=IFCRELDEFINESBYPROPERTIES('2vLk2Yg2E$lPA0W7kUOqeP',#18,$,$,(#36),#509);
#514=IFCRELASSOCIATESMATERIAL('3Rhid4A0D0WqYnQz3ps_GE',#18,$,$,(#68),#92);
#515=IFCRELASSOCIATESMATERIAL('0zC099uAL33_X8j1jkV$7J',#18,$,$,(#132),#207);
#516=IFCRELASSOCIATESMATERIAL('2se4hQ2Wj0FysXV4W5gbru',#18,$,$,(#246),#254);
#517=IFCRELASSOCIATESMATERIAL('15c4cqGHymeddfgYA1X0P3',#18,$,$,(#391),#402);
#518=IFCRELASSOCIATESMATERIAL('3Z4ux8riMIERHWHVpGm2WE',#18,$,$,(#425),#436);
#519=IFCRELASSOCIATESMATERIAL('18O$emHgWA1SMVcFtr0hzI',#18,$,$,(#459),#460);
#520=IFCRELASSOCIATESMATERIAL('2Cv7rvwY$7bg$JOon51noy',#18,$,$,(#484),#485);
#521=IFCRELASSOCIATESMATERIAL('2ZfrYOSJ8RDlpga5JM3VGT',#18,$,$,(#336),#351);
#522=IFCRELASSOCIATESMATERIAL('38uEJjTQTipUbuTY7B7WnG',#18,$,$,(#360),#363);
#523=IFCRELASSOCIATESMATERIAL('2XUTpG0$Dho9qPz2m$mx27',#18,$,$,(#93),#91);
#524=IFCRELASSOCIATESMATERIAL('0FXu4DFqkdfODm3pIcIv2$',#18,$,$,(#208),#206);
#525=IFCRELASSOCIATESMATERIAL('1DB$mz759qG1O0PqqEnAdF',#18,$,$,(#247),#253);
#526=IFCRELDEFINESBYTYPE('22UaGt5xHtcPNNGDHdUica',#18,$,$,(#68,#391,#425),#93);
#527=IFCRELDEFINESBYTYPE('0ST$$2pvg8B$fLkeU1jFkJ',#18,$,$,(#132,#459,#484),#208);
#528=IFCRELDEFINESBYTYPE('1c_qU9vKvGjzSVBklnIQZh',#18,$,$,(#246),#247);
#529=IFCRELDEFINESBYTYPE('3DjVfzVH$AbpUHsz2J0Avm',#18,$,$,(#360),#336);
#530=IFCPRESENTATIONLAYERASSIGNMENT('A-WALL-____-OTLN',$,(#56,#67,#382,#390,#416,#424),$);
#531=IFCPRESENTATIONLAYERASSIGNMENT('I-WALL-____-OTLN',$,(#120,#131,#450,#458,#475,#483),$);
#532=IFCPRESENTATIONLAYERASSIGNMENT('A-GLAZ-____-OTLN',$,(#145,#332,#346,#349,#354),$);
#533=IFCPRESENTATIONLAYERASSIGNMENT('A-FLOR-____-OTLN',$,(#238),$);
#534=IFCCARTESIANPOINT((499.99999999999869,500.00000000000034));
#535=IFCAXIS2PLACEMENT2D(#534,#11);
#536=IFCRECTANGLEPROFILEDEF(.AREA.,$,#535,999.99999999999739,999.99999999999955);
#537=IFCAXIS2PLACEMENT3D(#3,#8,#9);
#538=IFCEXTRUDEDAREASOLID(#536,#537,#9,200.);
#539=IFCSHAPEREPRESENTATION(#26,'Body','SweptSolid',(#538));
#540=IFCPRODUCTDEFINITIONSHAPE($,$,(#539));
#541=IFCCARTESIANPOINT((12900.,100.,1000.));
#542=IFCAXIS2PLACEMENT3D(#541,$,$);
#543=IFCLOCALPLACEMENT(#53,#542);
#544=IFCOPENINGELEMENT('2rWPK8Mb79uaCDW_8oejo0',#18,'M_Fixo:1000 x 1000 mm:327314:1',$,$,#543,#540,'327314',.OPENING.);
#545=IFCRELVOIDSELEMENT('1I0EcHemb5$uSLeyiP4V06',#18,$,$,#68,#544);
#546=IFCQUANTITYLENGTH('Depth',$,$,200.,$);
#547=IFCQUANTITYLENGTH('Height',$,$,999.99999999999795,$);
#548=IFCQUANTITYLENGTH('Width',$,$,999.99999999999739,$);
#549=IFCELEMENTQUANTITY('3fdYgylTcOh_IQ74roFC$k',#18,'Qto_OpeningElementBaseQuantities',$,$,(#546,#547,#548));
#550=IFCRELDEFINESBYPROPERTIES('0kQGGHF2S5qhHQa_5ocXu8',#18,$,$,(#544),#549);
#551=IFCRELFILLSELEMENT('2W5eRZ8kuffVkUc8djjFhz',#18,$,$,#544,#360);
#552=IFCAXIS2PLACEMENT3D(#3,#9,#6);
#553=IFCLOCALPLACEMENT(#543,#552);
#554=IFCPROPERTYSINGLEVALUE('Category',$,IFCLABEL('Alvenaria'),$);
#555=IFCPROPERTYSINGLEVALUE('Class',$,IFCLABEL('Alvenaria'),$);
#556=IFCMATERIALPROPERTIES('Identity',$,(#554,#555),#79);
#557=IFCPROPERTYSINGLEVALUE('Name',$,IFCLABEL('Concreto(1)'),$);
#558=IFCPROPERTYSINGLEVALUE('Description',$,IFCLABEL('fc padr\X\E3o do concreto = 3,5 ksi'),$);
#559=IFCPROPERTYSINGLEVALUE('Keywords',$,IFCLABEL('estrutural:concreto'),$);
#560=IFCPROPERTYSINGLEVALUE('Type',$,IFCLABEL('Concrete'),$);
#561=IFCPROPERTYSINGLEVALUE('SubClass',$,IFCLABEL('Padr\X\E3o'),$);
#562=IFCPROPERTYSINGLEVALUE('Source',$,IFCLABEL('Autodesk'),$);
#563=IFCPROPERTYSINGLEVALUE('Behavior',$,IFCLABEL('Isotropic'),$);
#564=IFCSIUNIT(*,.PRESSUREUNIT.,$,.PASCAL.);
#565=IFCPROPERTYSINGLEVALUE('TensileStrength',$,IFCPRESSUREMEASURE(2413293.7999999998),$);
#566=IFCPROPERTYSINGLEVALUE('ConcreteCompression',$,IFCPRESSUREMEASURE(24132938.009999998),$);
#567=IFCPROPERTYSINGLEVALUE('ShearStrengthModification',$,IFCREAL(1.),$);
#568=IFCPROPERTYSINGLEVALUE('ThermallyTreated',$,IFCBOOLEAN(.F.),$);
#569=IFCMATERIALPROPERTIES('Structural',$,(#557,#558,#559,#560,#561,#562,#563,#565,#566,#567,#568),#79);
#570=IFCPROPERTYSINGLEVALUE('Name',$,IFCLABEL('Bloco - Peso M\X\E9dio'),$);
#571=IFCPROPERTYSINGLEVALUE('Description',$,IFCLABEL('Unidades de alvenaria de peso m\X\E9dio'),$);
#572=IFCPROPERTYSINGLEVALUE('Keywords',$,IFCLABEL('M\X\E9dio:CMU:Concreto:t\X\E9rmico:s\X\F3lido'),$);
#573=IFCPROPERTYSINGLEVALUE('Type',$,IFCLABEL('Solid'),$);
#574=IFCPROPERTYSINGLEVALUE('SubClass',$,IFCLABEL('Alvenaria'),$);
#575=IFCPROPERTYSINGLEVALUE('Source',$,IFCLABEL('Autodesk'),$);
#576=IFCSIUNIT(*,.LENGTHUNIT.,$,.METRE.);
#577=IFCDERIVEDUNITELEMENT(#576,-3);
#578=IFCDERIVEDUNIT((#106,#577),.MASSDENSITYUNIT.,$);
#579=IFCPROPERTYSINGLEVALUE('Density',$,IFCMASSDENSITYMEASURE(1800.),$);
#580=IFCPROPERTYSINGLEVALUE('Emissivity',$,IFCREAL(0.95000000000000007),$);
#581=IFCPROPERTYSINGLEVALUE('Behavior',$,IFCLABEL('Isotropic'),$);
#582=IFCPROPERTYSINGLEVALUE('TransmitsLight',$,IFCBOOLEAN(.F.),$);
#583=IFCDERIVEDUNITELEMENT(#576,-1);
#584=IFCDERIVEDUNITELEMENT(#109,1);
#585=IFCDERIVEDUNIT((#583,#584),.VAPORPERMEABILITYUNIT.,$);
#586=IFCPROPERTYSINGLEVALUE('Permeability',$,IFCVAPORPERMEABILITYMEASURE(0.),$);
#587=IFCPROPERTYSINGLEVALUE('Reflectivity',$,IFCREAL(0.),$);
#588=IFCDERIVEDUNITELEMENT(#576,3);
#589=IFCSIUNIT(*,.ELECTRICCURRENTUNIT.,$,.AMPERE.);
#590=IFCDERIVEDUNITELEMENT(#589,-2);
#591=IFCDERIVEDUNIT((#106,#110,#588,#590),.USERDEFINED.,'Electrical Resistivity');
#592=IFCPROPERTYSINGLEVALUE('ElectricalResistivity',$,IFCREAL(2000000.0000000002),#591);
#593=IFCMATERIALPROPERTIES('Thermal',$,(#570,#571,#572,#573,#574,#575,#579,#580,#581,#582,#586,#587,#592),#79);
#594=IFCPROPERTYSINGLEVALUE('Categoria',$,IFCLABEL('Materiais'),$);
#595=IFCPROPERTYSINGLEVALUE('Custo',$,IFCREAL(0.),$);
#596=IFCPROPERTYSINGLEVALUE('Descri\X\E7\X\E3o',$,IFCTEXT('Unidades de alvenaria de concreto'),$);
#597=IFCPROPERTYSINGLEVALUE('Brilho',$,IFCINTEGER(128),$);
#598=IFCPROPERTYSINGLEVALUE('Cor',$,IFCINTEGER(11908533),$);
#599=IFCPROPERTYSINGLEVALUE('Nome',$,IFCTEXT('Unidades de alvenaria de concreto'),$);
#600=IFCPROPERTYSINGLEVALUE('Suavidade',$,IFCINTEGER(50),$);
#601=IFCPROPERTYSINGLEVALUE('Tipo de material',$,IFCIDENTIFIER('Concreto'),$);
#602=IFCPROPERTYSINGLEVALUE('Transpar\X\EAncia',$,IFCINTEGER(0),$);
#603=IFCMATERIALPROPERTIES('Outros',$,(#594),#79);
#604=IFCMATERIALPROPERTIES('Dados de identidade',$,(#595,#596),#79);
#605=IFCMATERIALPROPERTIES('Materiais e acabamentos',$,(#597,#598,#599,#600,#601,#602),#79);
#606=IFCPROPERTYSINGLEVALUE('Category',$,IFCLABEL('Gen\X\E9rico'),$);
#607=IFCPROPERTYSINGLEVALUE('Class',$,IFCLABEL('Gen\X\E9rico'),$);
#608=IFCMATERIALPROPERTIES('Identity',$,(#606,#607),#158);
#609=IFCPROPERTYSINGLEVALUE('Name',$,IFCLABEL('Placa de gesso de parede'),$);
#610=IFCPROPERTYSINGLEVALUE('Description',$,IFCLABEL('Ativo estrutural b\X\E1sico'),$);
#611=IFCPROPERTYSINGLEVALUE('Keywords',$,IFCLABEL('GWB:drywall:placa de gesso:estrutural:b\X\E1sico'),$);
#612=IFCPROPERTYSINGLEVALUE('Type',$,IFCLABEL('Basic'),$);
#613=IFCPROPERTYSINGLEVALUE('SubClass',$,IFCLABEL(''),$);
#614=IFCPROPERTYSINGLEVALUE('Behavior',$,IFCLABEL('Isotropic'),$);
#615=IFCMATERIALPROPERTIES('Structural',$,(#609,#610,#611,#612,#613,#614),#158);
#616=IFCPROPERTYSINGLEVALUE('Name',$,IFCLABEL('Placa de gesso'),$);
#617=IFCPROPERTYSINGLEVALUE('Description',$,IFCLABEL('Placa de gesso'),$);
#618=IFCPROPERTYSINGLEVALUE('Keywords',$,IFCLABEL('dry wall:pedra em folha:t\X\E9rmico:s\X\F3lido'),$);
#619=IFCPROPERTYSINGLEVALUE('Type',$,IFCLABEL('Solid'),$);
#620=IFCPROPERTYSINGLEVALUE('SubClass',$,IFCLABEL('Embo\X\E7o'),$);
#621=IFCPROPERTYSINGLEVALUE('Source',$,IFCLABEL('Autodesk'),$);
#622=IFCPROPERTYSINGLEVALUE('Density',$,IFCMASSDENSITYMEASURE(1100.),$);
#623=IFCPROPERTYSINGLEVALUE('Emissivity',$,IFCREAL(0.90000000000000002),$);
#624=IFCPROPERTYSINGLEVALUE('Behavior',$,IFCLABEL('Isotropic'),$);
#625=IFCPROPERTYSINGLEVALUE('TransmitsLight',$,IFCBOOLEAN(.F.),$);
#626=IFCPROPERTYSINGLEVALUE('ElectricalResistivity',$,IFCREAL(2000000.0000000002),#591);
#627=IFCMATERIALPROPERTIES('Thermal',$,(#586,#587,#616,#617,#618,#619,#620,#621,#622,#623,#624,#625,#626),#158);
#628=IFCPROPERTYSINGLEVALUE('Custo',$,IFCREAL(0.),$);
#629=IFCPROPERTYSINGLEVALUE('Descri\X\E7\X\E3o',$,IFCTEXT('Placa de gesso de parede'),$);
#630=IFCPROPERTYSINGLEVALUE('Brilho',$,IFCINTEGER(128),$);
#631=IFCPROPERTYSINGLEVALUE('Cor',$,IFCINTEGER(16382457),$);
#632=IFCPROPERTYSINGLEVALUE('Nome',$,IFCTEXT('Placa de gesso de parede'),$);
#633=IFCPROPERTYSINGLEVALUE('Suavidade',$,IFCINTEGER(50),$);
#634=IFCPROPERTYSINGLEVALUE('Tipo de material',$,IFCIDENTIFIER('Outros'),$);
#635=IFCMATERIALPROPERTIES('Outros',$,(#594),#158);
#636=IFCMATERIALPROPERTIES('Dados de identidade',$,(#628,#629),#158);
#637=IFCMATERIALPROPERTIES('Materiais e acabamentos',$,(#602,#630,#631,#632,#633,#634),#158);
#638=IFCPROPERTYSINGLEVALUE('Category',$,IFCLABEL('Metal'),$);
#639=IFCPROPERTYSINGLEVALUE('Class',$,IFCLABEL('Metal'),$);
#640=IFCMATERIALPROPERTIES('Identity',$,(#638,#639),#194);
#641=IFCPROPERTYSINGLEVALUE('Name',$,IFCLABEL('A\X\E7o(2)'),$);
#642=IFCPROPERTYSINGLEVALUE('Description',$,IFCLABEL('Ativo de metal estrutural'),$);
#643=IFCPROPERTYSINGLEVALUE('Keywords',$,IFCLABEL('estrutural:metal'),$);
#644=IFCPROPERTYSINGLEVALUE('Type',$,IFCLABEL('Metal'),$);
#645=IFCPROPERTYSINGLEVALUE('SubClass',$,IFCLABEL('A\X\E7o'),$);
#646=IFCPROPERTYSINGLEVALUE('Source',$,IFCLABEL('Autodesk'),$);
#647=IFCPROPERTYSINGLEVALUE('Behavior',$,IFCLABEL('Isotropic'),$);
#648=IFCPROPERTYSINGLEVALUE('TensileStrength',$,IFCPRESSUREMEASURE(344999999.99999994),$);
#649=IFCPROPERTYSINGLEVALUE('ThermallyTreated',$,IFCBOOLEAN(.F.),$);
#650=IFCMATERIALPROPERTIES('Structural',$,(#641,#642,#643,#644,#645,#646,#647,#648,#649),#194);
#651=IFCPROPERTYSINGLEVALUE('Name',$,IFCLABEL('Ar'),$);
#652=IFCPROPERTYSINGLEVALUE('Description',$,IFCLABEL('Ar, propriedades na press\X\E3o atmosf\X\E9rica'),$);
#653=IFCPROPERTYSINGLEVALUE('Keywords',$,IFCLABEL('t\X\E9rmico:g\X\E1s'),$);
#654=IFCPROPERTYSINGLEVALUE('Type',$,IFCLABEL('Gas'),$);
#655=IFCPROPERTYSINGLEVALUE('Source',$,IFCLABEL('Autodesk'),$);
#656=IFCPROPERTYSINGLEVALUE('Density',$,IFCMASSDENSITYMEASURE(1.2000000000000002),$);
#657=IFCPROPERTYSINGLEVALUE('Emissivity',$,IFCREAL(0.001),$);
#658=IFCPROPERTYSINGLEVALUE('Compressibility',$,IFCREAL(0.99919999999999998),$);
#659=IFCDERIVEDUNITELEMENT(#109,-1);
#660=IFCDERIVEDUNIT((#106,#583,#659),.DYNAMICVISCOSITYUNIT.,$);
#661=IFCPROPERTYSINGLEVALUE('GasViscosity',$,IFCDYNAMICVISCOSITYMEASURE(0.0001),$);
#662=IFCMATERIALPROPERTIES('Thermal',$,(#651,#652,#653,#654,#655,#656,#657,#658,#661),#194);
#663=IFCPROPERTYSINGLEVALUE('Custo',$,IFCREAL(0.),$);
#664=IFCPROPERTYSINGLEVALUE('Descri\X\E7\X\E3o',$,IFCTEXT('Moldura do man\X\F4metro de a\X\E7o leve, camada de ar t\X\E9rmico'),$);
#665=IFCPROPERTYSINGLEVALUE('Brilho',$,IFCINTEGER(64),$);
#666=IFCPROPERTYSINGLEVALUE('Cor',$,IFCINTEGER(8355711),$);
#667=IFCPROPERTYSINGLEVALUE('Nome',$,IFCTEXT('Camada de suporte de metal'),$);
#668=IFCPROPERTYSINGLEVALUE('Suavidade',$,IFCINTEGER(50),$);
#669=IFCPROPERTYSINGLEVALUE('Tipo de material',$,IFCIDENTIFIER('A\X\E7o'),$);
#670=IFCMATERIALPROPERTIES('Outros',$,(#594),#194);
#671=IFCMATERIALPROPERTIES('Dados de identidade',$,(#663,#664),#194);
#672=IFCMATERIALPROPERTIES('Materiais e acabamentos',$,(#602,#665,#666,#667,#668,#669),#194);
#673=IFCPROPERTYSINGLEVALUE('Category',$,IFCLABEL('Diversos'),$);
#674=IFCPROPERTYSINGLEVALUE('Class',$,IFCLABEL('Diversos'),$);
#675=IFCMATERIALPROPERTIES('Identity',$,(#673,#674),#248);
#676=IFCPROPERTYSINGLEVALUE('Custo',$,IFCREAL(0.),$);
#677=IFCPROPERTYSINGLEVALUE('Brilho',$,IFCINTEGER(64),$);
#678=IFCPROPERTYSINGLEVALUE('Cor',$,IFCINTEGER(8355711),$);
#679=IFCPROPERTYSINGLEVALUE('Nome',$,IFCTEXT('Material pr\X\E9-definido de piso'),$);
#680=IFCPROPERTYSINGLEVALUE('Suavidade',$,IFCINTEGER(50),$);
#681=IFCMATERIALPROPERTIES('Outros',$,(#594),#248);
#682=IFCMATERIALPROPERTIES('Dados de identidade',$,(#676),#248);
#683=IFCMATERIALPROPERTIES('Materiais e acabamentos',$,(#602,#677,#678,#679,#680),#248);
#684=IFCPROPERTYSINGLEVALUE('Category',$,IFCLABEL('Vidro'),$);
#685=IFCPROPERTYSINGLEVALUE('Class',$,IFCLABEL('Vidro'),$);
#686=IFCMATERIALPROPERTIES('Identity',$,(#684,#685),#337);
#687=IFCPROPERTYSINGLEVALUE('Name',$,IFCLABEL('Vidro - Lima soda'),$);
#688=IFCPROPERTYSINGLEVALUE('Description',$,IFCLABEL('Vidro - Lima soda'),$);
#689=IFCPROPERTYSINGLEVALUE('Keywords',$,IFCLABEL('Vidra\X\E7a:estrutural:gen\X\E9rico'),$);
#690=IFCPROPERTYSINGLEVALUE('Type',$,IFCLABEL('Generic'),$);
#691=IFCPROPERTYSINGLEVALUE('SubClass',$,IFCLABEL('Vidro'),$);
#692=IFCPROPERTYSINGLEVALUE('Source',$,IFCLABEL('Autodesk'),$);
#693=IFCPROPERTYSINGLEVALUE('Behavior',$,IFCLABEL('Isotropic'),$);
#694=IFCPROPERTYSINGLEVALUE('TensileStrength',$,IFCPRESSUREMEASURE(33000000.),$);
#695=IFCMATERIALPROPERTIES('Structural',$,(#687,#688,#689,#690,#691,#692,#693,#694),#337);
#696=IFCPROPERTYSINGLEVALUE('Name',$,IFCLABEL('Vidro - Janela de sil\X\EDcio'),$);
#697=IFCPROPERTYSINGLEVALUE('Description',$,IFCLABEL('Vidro de janela'),$);
#698=IFCPROPERTYSINGLEVALUE('Keywords',$,IFCLABEL('Vidra\X\E7a:clara:t\X\E9rmico:s\X\F3lido'),$);
#699=IFCPROPERTYSINGLEVALUE('Type',$,IFCLABEL('Solid'),$);
#700=IFCPROPERTYSINGLEVALUE('SubClass',$,IFCLABEL('Vidro'),$);
#701=IFCPROPERTYSINGLEVALUE('Source',$,IFCLABEL('Autodesk'),$);
#702=IFCPROPERTYSINGLEVALUE('Density',$,IFCMASSDENSITYMEASURE(2480.),$);
#703=IFCPROPERTYSINGLEVALUE('Behavior',$,IFCLABEL('Isotropic'),$);
#704=IFCPROPERTYSINGLEVALUE('TransmitsLight',$,IFCBOOLEAN(.T.),$);
#705=IFCPROPERTYSINGLEVALUE('ElectricalResistivity',$,IFCREAL(10000000000.),#591);
#706=IFCMATERIALPROPERTIES('Thermal',$,(#580,#586,#587,#696,#697,#698,#699,#700,#701,#702,#703,#704,#705),#337);
#707=IFCPROPERTYSINGLEVALUE('Custo',$,IFCREAL(0.),$);
#708=IFCPROPERTYSINGLEVALUE('Descri\X\E7\X\E3o',$,IFCTEXT('Vidro de s\X\EDlica'),$);
#709=IFCPROPERTYSINGLEVALUE('Brilho',$,IFCINTEGER(12),$);
#710=IFCPROPERTYSINGLEVALUE('Cor',$,IFCINTEGER(12615680),$);
#711=IFCPROPERTYSINGLEVALUE('Nome',$,IFCTEXT('Vidro'),$);
#712=IFCPROPERTYSINGLEVALUE('Suavidade',$,IFCINTEGER(50),$);
#713=IFCPROPERTYSINGLEVALUE('Tipo de material',$,IFCIDENTIFIER('Gen\X\E9rico'),$);
#714=IFCPROPERTYSINGLEVALUE('Transpar\X\EAncia',$,IFCINTEGER(90),$);
#715=IFCMATERIALPROPERTIES('Outros',$,(#594),#337);
#716=IFCMATERIALPROPERTIES('Dados de identidade',$,(#707,#708),#337);
#717=IFCMATERIALPROPERTIES('Materiais e acabamentos',$,(#709,#710,#711,#712,#713,#714),#337);
#718=IFCPROPERTYSINGLEVALUE('Category',$,IFCLABEL('Madeira'),$);
#719=IFCPROPERTYSINGLEVALUE('Class',$,IFCLABEL('Madeira'),$);
#720=IFCMATERIALPROPERTIES('Identity',$,(#718,#719),#341);
#721=IFCPROPERTYSINGLEVALUE('Custo',$,IFCREAL(0.),$);
#722=IFCPROPERTYSINGLEVALUE('Brilho',$,IFCINTEGER(128),$);
#723=IFCPROPERTYSINGLEVALUE('Cor',$,IFCINTEGER(8303328),$);
#724=IFCPROPERTYSINGLEVALUE('Nome',$,IFCTEXT('Caixilho'),$);
#725=IFCPROPERTYSINGLEVALUE('Suavidade',$,IFCINTEGER(50),$);
#726=IFCMATERIALPROPERTIES('Outros',$,(#594),#341);
#727=IFCMATERIALPROPERTIES('Dados de identidade',$,(#721),#341);
#728=IFCMATERIALPROPERTIES('Materiais e acabamentos',$,(#602,#722,#723,#724,#725),#341);
#729=IFCUNITASSIGNMENT((#19,#20,#21,#111,#144,#564,#578,#585,#591,#660));
ENDSEC;

END-ISO-10303-21;